# 3ds Max Wavefront OBJ Exporter v0.99 - (c)2007 guruware
# File Created: 15.12.2024 05:52:30

#
# object Box001
#

v  -0.3672 0.6120 -0.0427
v  -0.0000 0.5893 -0.0436
v  0.0000 0.5063 0.0000
v  -0.3523 0.5301 0.0000
v  0.3672 0.6120 -0.0427
v  0.3523 0.5301 0.0000
v  0.3672 0.6120 0.0427
v  0.0000 0.5893 0.0436
v  -0.3672 0.6120 0.0427
v  -0.3672 2.7444 0.0427
v  0.0000 2.7670 0.0436
v  0.0000 2.8501 0.0000
v  -0.3523 2.8263 0.0000
v  0.3672 2.7444 0.0427
v  0.3523 2.8263 0.0000
v  0.3672 2.7444 -0.0427
v  0.0000 2.7670 -0.0436
v  -0.3672 2.7444 -0.0427
v  0.4571 1.2267 0.0679
v  0.4720 1.6782 0.0699
v  0.0000 1.6782 0.0720
v  0.0000 1.2143 0.0700
v  0.4571 2.1296 0.0679
v  0.0000 2.1420 0.0700
v  -0.4571 2.1296 0.0679
v  -0.4720 1.6782 0.0699
v  -0.4571 1.2267 0.0679
v  1.0610 1.3010 -0.0424
v  1.1023 1.6782 -0.0434
v  1.1858 1.6782 0.0000
v  1.1407 1.3133 0.0000
v  1.0610 2.0554 -0.0424
v  1.1407 2.0430 0.0000
v  1.0610 2.0554 0.0424
v  1.1023 1.6782 0.0434
v  1.0610 1.3010 0.0424
v  -0.4571 1.2267 -0.0679
v  -0.4720 1.6782 -0.0699
v  -0.0000 1.6782 -0.0720
v  -0.0000 1.2143 -0.0700
v  -0.4571 2.1296 -0.0679
v  0.0000 2.1420 -0.0700
v  0.4571 2.1296 -0.0679
v  0.4720 1.6782 -0.0699
v  0.4571 1.2267 -0.0679
v  -1.0610 1.3010 0.0424
v  -1.1023 1.6782 0.0434
v  -1.1858 1.6782 0.0000
v  -1.1407 1.3133 0.0000
v  -1.0610 2.0554 0.0424
v  -1.1407 2.0430 0.0000
v  -1.0610 2.0554 -0.0424
v  -1.1023 1.6782 -0.0434
v  -1.0610 1.3010 -0.0424
v  0.6420 0.6800 -0.0398
v  0.6120 0.6014 0.0000
v  0.8039 0.7882 -0.0289
v  0.8171 0.7470 0.0000
v  0.8039 0.7882 0.0289
v  0.6420 0.6800 0.0398
v  -0.6420 0.6800 0.0398
v  -0.6120 0.6014 -0.0000
v  -0.8039 0.7882 0.0289
v  -0.8171 0.7470 -0.0000
v  -0.8039 0.7882 -0.0289
v  -0.6420 0.6800 -0.0398
v  0.6420 2.6763 0.0398
v  0.6120 2.7550 0.0000
v  0.8039 2.5681 0.0289
v  0.8171 2.6094 0.0000
v  0.8039 2.5681 -0.0289
v  0.6420 2.6763 -0.0398
v  -0.6420 2.6763 -0.0398
v  -0.6120 2.7550 0.0000
v  -0.8039 2.5681 -0.0289
v  -0.8171 2.6094 0.0000
v  -0.8039 2.5681 0.0289
v  -0.6420 2.6763 0.0398
v  0.8519 1.6782 0.0635
v  0.8219 1.2638 0.0619
v  0.8219 2.0925 0.0619
v  -0.8519 1.6782 0.0635
v  -0.8219 2.0925 0.0619
v  -0.8219 1.2638 0.0619
v  -0.8519 1.6782 -0.0635
v  -0.8219 1.2638 -0.0619
v  -0.8219 2.0925 -0.0619
v  0.8519 1.6782 -0.0635
v  0.8219 2.0925 -0.0619
v  0.8219 1.2638 -0.0619
v  0.4122 2.4986 0.0621
v  0.0000 2.5180 0.0637
v  -0.4122 2.4986 0.0621
v  -0.4122 0.8577 0.0621
v  0.0000 0.8383 0.0637
v  0.4122 0.8577 0.0621
v  0.9372 2.3821 -0.0396
v  1.0056 2.3627 0.0000
v  0.9372 2.3821 0.0396
v  0.9372 0.9742 0.0396
v  1.0056 0.9936 0.0000
v  0.9372 0.9742 -0.0396
v  -0.4122 2.4986 -0.0621
v  0.0000 2.5180 -0.0637
v  0.4122 2.4986 -0.0621
v  0.4122 0.8577 -0.0621
v  -0.0000 0.8383 -0.0637
v  -0.4122 0.8577 -0.0621
v  -0.9372 2.3821 0.0396
v  -1.0056 2.3627 0.0000
v  -0.9372 2.3821 -0.0396
v  -0.9372 0.9742 -0.0396
v  -1.0056 0.9936 -0.0000
v  -0.9372 0.9742 0.0396
v  0.7320 2.4404 0.0572
v  0.7320 0.9160 0.0572
v  -0.7320 0.9160 0.0572
v  -0.7320 2.4404 0.0572
v  -0.7320 2.4404 -0.0572
v  -0.7320 0.9160 -0.0572
v  0.7320 0.9160 -0.0572
v  0.7320 2.4404 -0.0572
# 122 vertices

vn -0.1792 -0.9395 -0.2920
vn -0.0000 -0.9532 -0.3022
vn -0.0000 -1.0000 -0.0000
vn -0.1650 -0.9863 -0.0000
vn 0.1792 -0.9395 -0.2920
vn 0.1650 -0.9863 -0.0000
vn 0.1792 -0.9395 0.2920
vn 0.0000 -0.9532 0.3022
vn -0.1792 -0.9395 0.2920
vn -0.1792 0.9395 0.2920
vn 0.0000 0.9532 0.3022
vn 0.0000 1.0000 0.0000
vn -0.1650 0.9863 -0.0000
vn 0.1792 0.9395 0.2920
vn 0.1650 0.9863 0.0000
vn 0.1792 0.9395 -0.2920
vn -0.0000 0.9532 -0.3022
vn -0.1792 0.9395 -0.2920
vn 0.2274 -0.2242 0.9477
vn 0.2241 0.0000 0.9746
vn 0.0000 0.0000 1.0000
vn 0.0000 -0.2206 0.9754
vn 0.2274 0.2242 0.9477
vn 0.0000 0.2206 0.9754
vn -0.2274 0.2242 0.9477
vn -0.2241 0.0000 0.9746
vn -0.2274 -0.2242 0.9477
vn 0.9306 -0.2417 -0.2748
vn 0.9536 -0.0000 -0.3009
vn 1.0000 0.0000 0.0000
vn 0.9668 -0.2555 -0.0000
vn 0.9306 0.2417 -0.2748
vn 0.9668 0.2555 0.0000
vn 0.9306 0.2417 0.2748
vn 0.9536 0.0000 0.3009
vn 0.9306 -0.2417 0.2748
vn -0.2274 -0.2242 -0.9477
vn -0.2241 -0.0000 -0.9746
vn -0.0000 -0.0000 -1.0000
vn -0.0000 -0.2206 -0.9754
vn -0.2274 0.2242 -0.9477
vn -0.0000 0.2206 -0.9754
vn 0.2274 0.2242 -0.9477
vn 0.2241 -0.0000 -0.9746
vn 0.2274 -0.2242 -0.9477
vn -0.9306 -0.2417 0.2748
vn -0.9536 0.0000 0.3009
vn -1.0000 0.0000 -0.0000
vn -0.9668 -0.2555 0.0000
vn -0.9306 0.2417 0.2748
vn -0.9668 0.2555 -0.0000
vn -0.9306 0.2417 -0.2748
vn -0.9536 -0.0000 -0.3009
vn -0.9306 -0.2417 -0.2748
vn 0.4896 -0.8407 -0.2311
vn 0.4238 -0.9057 -0.0000
vn 0.6983 -0.7099 -0.0917
vn 0.6925 -0.7215 0.0000
vn 0.6983 -0.7099 0.0917
vn 0.4896 -0.8407 0.2311
vn -0.4896 -0.8407 0.2311
vn -0.4238 -0.9057 -0.0000
vn -0.6983 -0.7099 0.0917
vn -0.6925 -0.7215 -0.0000
vn -0.6983 -0.7099 -0.0917
vn -0.4896 -0.8407 -0.2311
vn 0.4896 0.8407 0.2311
vn 0.4238 0.9057 0.0000
vn 0.6983 0.7099 0.0917
vn 0.6925 0.7215 0.0000
vn 0.6983 0.7099 -0.0917
vn 0.4896 0.8407 -0.2311
vn -0.4896 0.8407 -0.2311
vn -0.4238 0.9057 -0.0000
vn -0.6983 0.7099 -0.0917
vn -0.6925 0.7215 -0.0000
vn -0.6983 0.7099 0.0917
vn -0.4896 0.8407 0.2311
vn 0.6497 0.0000 0.7602
vn 0.6417 -0.2322 0.7310
vn 0.6417 0.2322 0.7310
vn -0.6497 0.0000 0.7602
vn -0.6417 0.2322 0.7310
vn -0.6417 -0.2322 0.7310
vn -0.6497 -0.0000 -0.7602
vn -0.6417 -0.2322 -0.7310
vn -0.6417 0.2322 -0.7310
vn 0.6497 -0.0000 -0.7602
vn 0.6417 0.2322 -0.7310
vn 0.6417 -0.2322 -0.7310
vn 0.2163 0.6331 0.7432
vn 0.0000 0.6404 0.7680
vn -0.2163 0.6331 0.7432
vn -0.2163 -0.6331 0.7432
vn 0.0000 -0.6404 0.7680
vn 0.2163 -0.6331 0.7432
vn 0.8153 0.5398 -0.2095
vn 0.8675 0.4974 0.0000
vn 0.8153 0.5398 0.2095
vn 0.8153 -0.5398 0.2095
vn 0.8675 -0.4974 -0.0000
vn 0.8153 -0.5398 -0.2095
vn -0.2163 0.6331 -0.7432
vn -0.0000 0.6404 -0.7680
vn 0.2163 0.6331 -0.7432
vn 0.2163 -0.6331 -0.7432
vn -0.0000 -0.6404 -0.7680
vn -0.2163 -0.6331 -0.7432
vn -0.8153 0.5398 0.2095
vn -0.8675 0.4974 -0.0000
vn -0.8153 0.5398 -0.2095
vn -0.8153 -0.5398 -0.2095
vn -0.8675 -0.4974 0.0000
vn -0.8153 -0.5398 0.2095
vn 0.5665 0.5811 0.5843
vn 0.5665 -0.5811 0.5843
vn -0.5665 -0.5811 0.5843
vn -0.5665 0.5811 0.5843
vn -0.5665 0.5811 -0.5843
vn -0.5665 -0.5811 -0.5843
vn 0.5665 -0.5811 -0.5843
vn 0.5665 0.5811 -0.5843
# 122 vertex normals

vt 0.6667 1.0000 0.0000
vt 0.5000 1.0000 0.0000
vt 0.5000 0.5000 0.0000
vt 0.6667 0.5000 0.0000
vt 0.3333 1.0000 0.0000
vt 0.3333 0.5000 0.0000
vt 0.3333 0.0000 0.0000
vt 0.5000 0.0000 0.0000
vt 0.6667 0.0000 0.0000
vt 0.6667 0.3333 0.0000
vt 0.5000 0.3333 0.0000
vt 0.6667 0.6667 0.0000
vt 0.5000 0.6667 0.0000
vt 0.3333 0.6667 0.0000
vt 0.3333 0.3333 0.0000
vt 1.0000 0.3333 0.0000
vt 1.0000 0.5000 0.0000
vt 1.0000 0.6667 0.0000
vt 0.0000 0.6667 0.0000
vt 0.0000 0.5000 0.0000
vt 0.0000 0.3333 0.0000
vt 0.1667 1.0000 0.0000
vt 0.1667 0.5000 0.0000
vt 0.0000 1.0000 0.0000
vt 0.0000 0.0000 0.0000
vt 0.1667 0.0000 0.0000
vt 0.8333 0.0000 0.0000
vt 0.8333 0.5000 0.0000
vt 1.0000 0.0000 0.0000
vt 1.0000 1.0000 0.0000
vt 0.8333 1.0000 0.0000
vt 0.8333 0.3333 0.0000
vt 0.8333 0.6667 0.0000
vt 0.1667 0.6667 0.0000
vt 0.1667 0.3333 0.0000
vt 0.6667 0.8333 0.0000
vt 0.5000 0.8333 0.0000
vt 0.3333 0.8333 0.0000
vt 0.3333 0.1667 0.0000
vt 0.5000 0.1667 0.0000
vt 0.6667 0.1667 0.0000
vt 1.0000 0.8333 0.0000
vt 0.0000 0.8333 0.0000
vt 0.0000 0.1667 0.0000
vt 1.0000 0.1667 0.0000
vt 0.8333 0.8333 0.0000
vt 0.8333 0.1667 0.0000
vt 0.1667 0.1667 0.0000
vt 0.1667 0.8333 0.0000
# 49 texture coords

o Box001
g Box001
f 1/1/1 2/2/2 3/3/3 
f 3/3/3 4/4/4 1/1/1 
f 5/5/5 6/6/6 3/3/3 
f 3/3/3 2/2/2 5/5/5 
f 7/7/7 8/8/8 3/3/3 
f 3/3/3 6/6/6 7/7/7 
f 9/9/9 4/4/4 3/3/3 
f 3/3/3 8/8/8 9/9/9 
f 10/7/10 11/8/11 12/3/12 
f 12/3/12 13/6/13 10/7/10 
f 14/9/14 15/4/15 12/3/12 
f 12/3/12 11/8/11 14/9/14 
f 16/1/16 17/2/17 12/3/12 
f 12/3/12 15/4/15 16/1/16 
f 18/5/18 13/6/13 12/3/12 
f 12/3/12 17/2/17 18/5/18 
f 19/10/19 20/4/20 21/3/21 
f 21/3/21 22/11/22 19/10/19 
f 23/12/23 24/13/24 21/3/21 
f 21/3/21 20/4/20 23/12/23 
f 25/14/25 26/6/26 21/3/21 
f 21/3/21 24/13/24 25/14/25 
f 27/15/27 22/11/22 21/3/21 
f 21/3/21 26/6/26 27/15/27 
f 28/16/28 29/17/29 30/3/30 
f 30/3/30 31/11/31 28/16/28 
f 32/18/32 33/13/33 30/3/30 
f 30/3/30 29/17/29 32/18/32 
f 34/19/34 35/20/35 30/3/30 
f 30/3/30 33/13/33 34/19/34 
f 36/21/36 31/11/31 30/3/30 
f 30/3/30 35/20/35 36/21/36 
f 37/10/37 38/4/38 39/3/39 
f 39/3/39 40/11/40 37/10/37 
f 41/12/41 42/13/42 39/3/39 
f 39/3/39 38/4/38 41/12/41 
f 43/14/43 44/6/44 39/3/39 
f 39/3/39 42/13/42 43/14/43 
f 45/15/45 40/11/40 39/3/39 
f 39/3/39 44/6/44 45/15/45 
f 46/16/46 47/17/47 48/3/48 
f 48/3/48 49/11/49 46/16/46 
f 50/18/50 51/13/51 48/3/48 
f 48/3/48 47/17/47 50/18/50 
f 52/19/52 53/20/53 48/3/48 
f 48/3/48 51/13/51 52/19/52 
f 54/21/54 49/11/49 48/3/48 
f 48/3/48 53/20/53 54/21/54 
f 5/5/5 55/22/55 56/23/56 
f 56/23/56 6/6/6 5/5/5 
f 57/24/57 58/20/58 56/23/56 
f 56/23/56 55/22/55 57/24/57 
f 59/25/59 60/26/60 56/23/56 
f 56/23/56 58/20/58 59/25/59 
f 7/7/7 6/6/6 56/23/56 
f 56/23/56 60/26/60 7/7/7 
f 9/9/9 61/27/61 62/28/62 
f 62/28/62 4/4/4 9/9/9 
f 63/29/63 64/17/64 62/28/62 
f 62/28/62 61/27/61 63/29/63 
f 65/30/65 66/31/66 62/28/62 
f 62/28/62 64/17/64 65/30/65 
f 1/1/1 4/4/4 62/28/62 
f 62/28/62 66/31/66 1/1/1 
f 14/9/14 67/27/67 68/28/68 
f 68/28/68 15/4/15 14/9/14 
f 69/29/69 70/17/70 68/28/68 
f 68/28/68 67/27/67 69/29/69 
f 71/30/71 72/31/72 68/28/68 
f 68/28/68 70/17/70 71/30/71 
f 16/1/16 15/4/15 68/28/68 
f 68/28/68 72/31/72 16/1/16 
f 18/5/18 73/22/73 74/23/74 
f 74/23/74 13/6/13 18/5/18 
f 75/24/75 76/20/76 74/23/74 
f 74/23/74 73/22/73 75/24/75 
f 77/25/77 78/26/78 74/23/74 
f 74/23/74 76/20/76 77/25/77 
f 10/7/10 13/6/13 74/23/74 
f 74/23/74 78/26/78 10/7/10 
f 36/16/36 35/17/35 79/28/79 
f 79/28/79 80/32/80 36/16/36 
f 34/18/34 81/33/81 79/28/79 
f 79/28/79 35/17/35 34/18/34 
f 23/12/23 20/4/20 79/28/79 
f 79/28/79 81/33/81 23/12/23 
f 19/10/19 80/32/80 79/28/79 
f 79/28/79 20/4/20 19/10/19 
f 50/19/50 47/20/47 82/23/82 
f 82/23/82 83/34/83 50/19/50 
f 46/21/46 84/35/84 82/23/82 
f 82/23/82 47/20/47 46/21/46 
f 27/15/27 26/6/26 82/23/82 
f 82/23/82 84/35/84 27/15/27 
f 25/14/25 83/34/83 82/23/82 
f 82/23/82 26/6/26 25/14/25 
f 54/16/54 53/17/53 85/28/85 
f 85/28/85 86/32/86 54/16/54 
f 52/18/52 87/33/87 85/28/85 
f 85/28/85 53/17/53 52/18/52 
f 41/12/41 38/4/38 85/28/85 
f 85/28/85 87/33/87 41/12/41 
f 37/10/37 86/32/86 85/28/85 
f 85/28/85 38/4/38 37/10/37 
f 32/19/32 29/20/29 88/23/88 
f 88/23/88 89/34/89 32/19/32 
f 28/21/28 90/35/90 88/23/88 
f 88/23/88 29/20/29 28/21/28 
f 45/15/45 44/6/44 88/23/88 
f 88/23/88 90/35/90 45/15/45 
f 43/14/43 89/34/89 88/23/88 
f 88/23/88 44/6/44 43/14/43 
f 23/12/23 91/36/91 92/37/92 
f 92/37/92 24/13/24 23/12/23 
f 14/1/14 11/2/11 92/37/92 
f 92/37/92 91/36/91 14/1/14 
f 10/5/10 93/38/93 92/37/92 
f 92/37/92 11/2/11 10/5/10 
f 25/14/25 24/13/24 92/37/92 
f 92/37/92 93/38/93 25/14/25 
f 27/15/27 94/39/94 95/40/95 
f 95/40/95 22/11/22 27/15/27 
f 9/7/9 8/8/8 95/40/95 
f 95/40/95 94/39/94 9/7/9 
f 7/9/7 96/41/96 95/40/95 
f 95/40/95 8/8/8 7/9/7 
f 19/10/19 22/11/22 95/40/95 
f 95/40/95 96/41/96 19/10/19 
f 32/18/32 97/42/97 98/37/98 
f 98/37/98 33/13/33 32/18/32 
f 71/30/71 70/2/70 98/37/98 
f 98/37/98 97/42/97 71/30/71 
f 69/24/69 99/43/99 98/37/98 
f 98/37/98 70/2/70 69/24/69 
f 34/19/34 33/13/33 98/37/98 
f 98/37/98 99/43/99 34/19/34 
f 36/21/36 100/44/100 101/40/101 
f 101/40/101 31/11/31 36/21/36 
f 59/25/59 58/8/58 101/40/101 
f 101/40/101 100/44/100 59/25/59 
f 57/29/57 102/45/102 101/40/101 
f 101/40/101 58/8/58 57/29/57 
f 28/16/28 31/11/31 101/40/101 
f 101/40/101 102/45/102 28/16/28 
f 41/12/41 103/36/103 104/37/104 
f 104/37/104 42/13/42 41/12/41 
f 18/1/18 17/2/17 104/37/104 
f 104/37/104 103/36/103 18/1/18 
f 16/5/16 105/38/105 104/37/104 
f 104/37/104 17/2/17 16/5/16 
f 43/14/43 42/13/42 104/37/104 
f 104/37/104 105/38/105 43/14/43 
f 45/15/45 106/39/106 107/40/107 
f 107/40/107 40/11/40 45/15/45 
f 5/7/5 2/8/2 107/40/107 
f 107/40/107 106/39/106 5/7/5 
f 1/9/1 108/41/108 107/40/107 
f 107/40/107 2/8/2 1/9/1 
f 37/10/37 40/11/40 107/40/107 
f 107/40/107 108/41/108 37/10/37 
f 50/18/50 109/42/109 110/37/110 
f 110/37/110 51/13/51 50/18/50 
f 77/30/77 76/2/76 110/37/110 
f 110/37/110 109/42/109 77/30/77 
f 75/24/75 111/43/111 110/37/110 
f 110/37/110 76/2/76 75/24/75 
f 52/19/52 51/13/51 110/37/110 
f 110/37/110 111/43/111 52/19/52 
f 54/21/54 112/44/112 113/40/113 
f 113/40/113 49/11/49 54/21/54 
f 65/25/65 64/8/64 113/40/113 
f 113/40/113 112/44/112 65/25/65 
f 63/29/63 114/45/114 113/40/113 
f 113/40/113 64/8/64 63/29/63 
f 46/16/46 49/11/49 113/40/113 
f 113/40/113 114/45/114 46/16/46 
f 34/18/34 99/42/99 115/46/115 
f 115/46/115 81/33/81 34/18/34 
f 69/30/69 67/31/67 115/46/115 
f 115/46/115 99/42/99 69/30/69 
f 14/1/14 91/36/91 115/46/115 
f 115/46/115 67/31/67 14/1/14 
f 23/12/23 81/33/81 115/46/115 
f 115/46/115 91/36/91 23/12/23 
f 19/10/19 96/41/96 116/47/116 
f 116/47/116 80/32/80 19/10/19 
f 7/9/7 60/27/60 116/47/116 
f 116/47/116 96/41/96 7/9/7 
f 59/29/59 100/45/100 116/47/116 
f 116/47/116 60/27/60 59/29/59 
f 36/16/36 80/32/80 116/47/116 
f 116/47/116 100/45/100 36/16/36 
f 46/21/46 114/44/114 117/48/117 
f 117/48/117 84/35/84 46/21/46 
f 63/25/63 61/26/61 117/48/117 
f 117/48/117 114/44/114 63/25/63 
f 9/7/9 94/39/94 117/48/117 
f 117/48/117 61/26/61 9/7/9 
f 27/15/27 84/35/84 117/48/117 
f 117/48/117 94/39/94 27/15/27 
f 25/14/25 93/38/93 118/49/118 
f 118/49/118 83/34/83 25/14/25 
f 10/5/10 78/22/78 118/49/118 
f 118/49/118 93/38/93 10/5/10 
f 77/24/77 109/43/109 118/49/118 
f 118/49/118 78/22/78 77/24/77 
f 50/19/50 83/34/83 118/49/118 
f 118/49/118 109/43/109 50/19/50 
f 52/18/52 111/42/111 119/46/119 
f 119/46/119 87/33/87 52/18/52 
f 75/30/75 73/31/73 119/46/119 
f 119/46/119 111/42/111 75/30/75 
f 18/1/18 103/36/103 119/46/119 
f 119/46/119 73/31/73 18/1/18 
f 41/12/41 87/33/87 119/46/119 
f 119/46/119 103/36/103 41/12/41 
f 37/10/37 108/41/108 120/47/120 
f 120/47/120 86/32/86 37/10/37 
f 1/9/1 66/27/66 120/47/120 
f 120/47/120 108/41/108 1/9/1 
f 65/29/65 112/45/112 120/47/120 
f 120/47/120 66/27/66 65/29/65 
f 54/16/54 86/32/86 120/47/120 
f 120/47/120 112/45/112 54/16/54 
f 28/21/28 102/44/102 121/48/121 
f 121/48/121 90/35/90 28/21/28 
f 57/25/57 55/26/55 121/48/121 
f 121/48/121 102/44/102 57/25/57 
f 5/7/5 106/39/106 121/48/121 
f 121/48/121 55/26/55 5/7/5 
f 45/15/45 90/35/90 121/48/121 
f 121/48/121 106/39/106 45/15/45 
f 43/14/43 105/38/105 122/49/122 
f 122/49/122 89/34/89 43/14/43 
f 16/5/16 72/22/72 122/49/122 
f 122/49/122 105/38/105 16/5/16 
f 71/24/71 97/43/97 122/49/122 
f 122/49/122 72/22/72 71/24/71 
f 32/19/32 89/34/89 122/49/122 
f 122/49/122 97/43/97 32/19/32 
# 0 polygons - 240 triangles

