# 3ds Max Wavefront OBJ Exporter v0.99 - (c)2007 guruware
# File Created: 19.11.2024 20:55:05

mtllib cube.mtl

#
# object Box001
#

v  -0.5000 -0.5000 0.5000
v  -0.5000 -0.5000 -0.5000
v  0.5000 -0.5000 -0.5000
v  0.5000 -0.5000 0.5000
v  -0.5000 0.5000 0.5000
v  0.5000 0.5000 0.5000
v  0.5000 0.5000 -0.5000
v  -0.5000 0.5000 -0.5000
# 8 vertices

vn -0.5774 -0.5774 0.5774
vn -0.5774 -0.5774 -0.5774
vn 0.5774 -0.5774 -0.5774
vn 0.5774 -0.5774 0.5774
vn -0.5774 0.5774 0.5774
vn 0.5774 0.5774 0.5774
vn 0.5774 0.5774 -0.5774
vn -0.5774 0.5774 -0.5774
# 8 vertex normals

vt 1.0000 0.0000 0.0000
vt 1.0000 1.0000 0.0000
vt 0.0000 1.0000 0.0000
vt 0.0000 0.0000 0.0000
# 4 texture coords

o Box001
g Box001
usemtl wire_035030158
s 2
f 1/1/1 2/2/2 3/3/3 
f 3/3/3 4/4/4 1/1/1 
s 4
f 5/4/5 6/1/6 7/2/7 
f 7/2/7 8/3/8 5/4/5 
s 8
f 1/4/1 4/1/4 6/2/6 
f 6/2/6 5/3/5 1/4/1 
s 16
f 4/4/4 3/1/3 7/2/7 
f 7/2/7 6/3/6 4/4/4 
s 32
f 3/4/3 2/1/2 8/2/8 
f 8/2/8 7/3/7 3/4/3 
s 64
f 2/4/2 1/1/1 5/2/5 
f 5/2/5 8/3/8 2/4/2 
# 0 polygons - 12 triangles

