# 3ds Max Wavefront OBJ Exporter v0.99 - (c)2007 guruware
# File Created: 14.12.2024 23:33:01

#
# object Box002
#

v  -0.6056 0.0701 0.6039
v  -0.7893 0.0394 -0.0000
v  0.0000 0.0000 -0.0000
v  0.0000 0.0394 0.7871
v  -0.6056 0.0701 -0.6039
v  0.0000 0.0394 -0.7871
v  0.6056 0.0701 -0.6039
v  0.7893 0.0394 -0.0000
v  0.6056 0.0701 0.6039
v  -0.5882 0.5772 0.6132
v  0.0000 0.5869 0.8133
v  0.0000 0.5993 -0.0000
v  -0.7757 0.5869 -0.0000
v  0.5882 0.5772 0.6132
v  0.7757 0.5869 -0.0000
v  0.5882 0.5772 -0.6132
v  0.0000 0.5869 -0.8133
v  -0.5882 0.5772 -0.6132
v  0.0000 0.1576 1.1433
v  -0.8598 0.1576 0.8575
v  0.8598 0.1576 0.8575
v  0.9299 0.2989 0.9292
v  0.0000 0.2989 1.2390
v  -0.9299 0.2989 0.9292
v  1.1465 0.1576 -0.0000
v  0.8598 0.1576 -0.8575
v  0.9299 0.2989 -0.9292
v  1.2398 0.2989 -0.0000
v  0.0000 0.1576 -1.1433
v  -0.8598 0.1576 -0.8575
v  -0.9299 0.2989 -0.9292
v  0.0000 0.2989 -1.2390
v  -1.1465 0.1576 -0.0000
v  -1.2398 0.2989 -0.0000
v  0.0000 0.5496 1.1328
v  0.8218 0.5496 0.8496
v  -0.8218 0.5496 0.8496
v  -0.8831 0.4893 0.8979
v  0.0000 0.4893 1.1972
v  0.8831 0.4893 0.8979
v  1.0958 0.5496 -0.0000
v  0.8218 0.5496 -0.8496
v  1.1774 0.4893 -0.0000
v  0.8831 0.4893 -0.8979
v  0.0000 0.5496 -1.1328
v  -0.8218 0.5496 -0.8496
v  0.0000 0.4893 -1.1972
v  -0.8831 0.4893 -0.8979
v  -1.0958 0.5496 -0.0000
v  -1.1774 0.4893 -0.0000
v  0.0000 0.4076 1.2448
v  -0.9283 0.4076 0.9336
v  0.9283 0.4076 0.9336
v  1.2378 0.4076 -0.0000
v  0.9283 0.4076 -0.9336
v  0.0000 0.4076 -1.2448
v  -0.9283 0.4076 -0.9336
v  -1.2378 0.4076 -0.0000
v  -0.4646 0.5872 0.4633
v  -0.6468 0.5655 -0.0000
v  0.0000 0.5376 -0.0000
v  0.0000 0.5655 0.6450
v  -0.4646 0.5872 -0.4633
v  0.0000 0.5655 -0.6450
v  0.4646 0.5872 -0.4633
v  0.6468 0.5655 -0.0000
v  0.4646 0.5872 0.4633
v  -0.3204 0.9315 0.3337
v  0.0000 0.9390 0.4436
v  0.0000 0.9486 -0.0000
v  -0.4238 0.9390 -0.0000
v  0.3204 0.9315 0.3337
v  0.4238 0.9390 -0.0000
v  0.3204 0.9315 -0.3337
v  0.0000 0.9390 -0.4436
v  -0.3204 0.9315 -0.3337
v  0.0000 0.6493 0.7948
v  -0.5978 0.6493 0.5961
v  0.5978 0.6493 0.5961
v  0.5369 0.7469 0.5366
v  0.0000 0.7469 0.7155
v  -0.5369 0.7469 0.5366
v  0.7970 0.6493 -0.0000
v  0.5978 0.6493 -0.5961
v  0.5369 0.7469 -0.5366
v  0.7159 0.7469 -0.0000
v  0.0000 0.6493 -0.7948
v  -0.5978 0.6493 -0.5961
v  -0.5369 0.7469 -0.5366
v  0.0000 0.7469 -0.7155
v  -0.7970 0.6493 -0.0000
v  -0.7159 0.7469 -0.0000
v  0.0000 0.9101 0.6145
v  0.4457 0.9101 0.4609
v  -0.4457 0.9101 0.4609
v  -0.4760 0.8674 0.4848
v  0.0000 0.8674 0.6464
v  0.4760 0.8674 0.4848
v  0.5942 0.9101 -0.0000
v  0.4457 0.9101 -0.4609
v  0.6347 0.8674 -0.0000
v  0.4760 0.8674 -0.4848
v  0.0000 0.9101 -0.6145
v  -0.4457 0.9101 -0.4609
v  0.0000 0.8674 -0.6464
v  -0.4760 0.8674 -0.4848
v  -0.5942 0.9101 -0.0000
v  -0.6347 0.8674 -0.0000
v  0.0000 0.8163 0.6731
v  -0.5014 0.8163 0.5048
v  0.5014 0.8163 0.5048
v  0.6685 0.8163 -0.0000
v  0.5014 0.8163 -0.5048
v  0.0000 0.8163 -0.6731
v  -0.5014 0.8163 -0.5048
v  -0.6685 0.8163 -0.0000
v  -0.2834 0.8963 0.2827
v  -0.4150 0.8391 -0.0000
v  0.0000 0.7656 -0.0000
v  -0.0000 0.8391 0.4139
v  -0.2834 0.8963 -0.2827
v  0.0000 0.8391 -0.4139
v  0.2834 0.8963 -0.2827
v  0.4150 0.8391 -0.0000
v  0.2834 0.8963 0.2827
v  -0.0921 1.1312 0.0607
v  0.0000 1.2318 0.0727
v  0.0000 1.3042 -0.0000
v  -0.1103 1.1938 -0.0000
v  0.0921 1.1312 0.0607
v  0.1103 1.1938 0.0000
v  0.0921 1.1312 -0.0607
v  -0.0000 1.2318 -0.0727
v  -0.0921 1.1312 -0.0607
v  0.0000 1.0332 0.2664
v  -0.2003 1.0332 0.1998
v  0.2003 1.0332 0.1998
v  0.2671 1.0332 -0.0000
v  0.2003 1.0332 -0.1998
v  0.0000 1.0332 -0.2664
v  -0.2003 1.0332 -0.1998
v  -0.2671 1.0332 -0.0000
# 142 vertices

vn -0.1441 -0.9839 0.1062
vn -0.2023 -0.9793 -0.0000
vn 0.0000 -1.0000 -0.0000
vn 0.0000 -0.9853 0.1709
vn -0.1441 -0.9839 -0.1062
vn 0.0000 -0.9853 -0.1709
vn 0.1441 -0.9839 -0.1062
vn 0.2023 -0.9793 -0.0000
vn 0.1441 -0.9839 0.1062
vn -0.0505 0.9981 0.0354
vn 0.0000 0.9981 0.0621
vn -0.0000 1.0000 0.0000
vn -0.0734 0.9973 -0.0000
vn 0.0505 0.9981 0.0354
vn 0.0734 0.9973 -0.0000
vn 0.0505 0.9981 -0.0354
vn 0.0000 0.9981 -0.0621
vn -0.0505 0.9981 -0.0354
vn 0.0000 -0.8194 0.5732
vn -0.4610 -0.8055 0.3724
vn 0.4610 -0.8055 0.3724
vn 0.7156 -0.3159 0.6230
vn 0.0000 -0.3540 0.9353
vn -0.7156 -0.3159 0.6230
vn 0.6333 -0.7739 -0.0000
vn 0.4610 -0.8055 -0.3724
vn 0.7156 -0.3159 -0.6230
vn 0.9637 -0.2668 -0.0000
vn 0.0000 -0.8194 -0.5732
vn -0.4610 -0.8055 -0.3724
vn -0.7156 -0.3159 -0.6230
vn 0.0000 -0.3540 -0.9353
vn -0.6333 -0.7739 -0.0000
vn -0.9637 -0.2668 -0.0000
vn 0.0000 0.9119 0.4104
vn 0.3111 0.9165 0.2516
vn -0.3111 0.9165 0.2516
vn -0.5414 0.7049 0.4583
vn 0.0000 0.6887 0.7250
vn 0.5414 0.7049 0.4583
vn 0.3996 0.9167 -0.0000
vn 0.3111 0.9165 -0.2516
vn 0.7186 0.6954 -0.0000
vn 0.5414 0.7049 -0.4583
vn 0.0000 0.9119 -0.4104
vn -0.3111 0.9165 -0.2516
vn 0.0000 0.6887 -0.7250
vn -0.5414 0.7049 -0.4583
vn -0.3996 0.9167 -0.0000
vn -0.7186 0.6954 -0.0000
vn -0.0000 0.2616 0.9652
vn -0.7170 0.2898 0.6340
vn 0.7170 0.2898 0.6340
vn 0.9518 0.3066 -0.0000
vn 0.7170 0.2898 -0.6340
vn 0.0000 0.2616 -0.9652
vn -0.7170 0.2898 -0.6340
vn -0.9518 0.3066 -0.0000
vn -0.1801 -0.9747 0.1322
vn -0.3105 -0.9506 -0.0000
vn 0.0000 -0.9622 0.2723
vn -0.1801 -0.9747 -0.1322
vn 0.0000 -0.9622 -0.2723
vn 0.1801 -0.9747 -0.1322
vn 0.3105 -0.9506 -0.0000
vn 0.1801 -0.9747 0.1322
vn -0.0725 0.9961 0.0507
vn 0.0000 0.9960 0.0895
vn 0.0000 1.0000 0.0000
vn -0.1059 0.9944 -0.0000
vn 0.0725 0.9961 0.0507
vn 0.1059 0.9944 -0.0000
vn 0.0725 0.9961 -0.0507
vn 0.0000 0.9960 -0.0895
vn -0.0725 0.9961 -0.0507
vn 0.0000 -0.1640 0.9865
vn -0.7194 -0.2080 0.6627
vn 0.7194 -0.2080 0.6627
vn 0.5765 0.6620 0.4790
vn -0.0000 0.6761 0.7368
vn -0.5765 0.6620 0.4790
vn 0.9841 -0.1779 -0.0000
vn 0.7194 -0.2080 -0.6627
vn 0.5765 0.6620 -0.4790
vn 0.7956 0.6059 0.0000
vn 0.0000 -0.1640 -0.9865
vn -0.7194 -0.2080 -0.6627
vn -0.5765 0.6620 -0.4790
vn 0.0000 0.6761 -0.7368
vn -0.9841 -0.1779 0.0000
vn -0.7956 0.6059 -0.0000
vn -0.0000 0.8582 0.5133
vn 0.3887 0.8646 0.3183
vn -0.3887 0.8646 0.3183
vn -0.5918 0.6305 0.5022
vn -0.0000 0.6115 0.7912
vn 0.5918 0.6305 0.5022
vn 0.5047 0.8633 -0.0000
vn 0.3887 0.8646 -0.3183
vn 0.7882 0.6154 -0.0000
vn 0.5918 0.6305 -0.5022
vn -0.0000 0.8582 -0.5133
vn -0.3887 0.8646 -0.3183
vn -0.0000 0.6115 -0.7912
vn -0.5918 0.6305 -0.5022
vn -0.5047 0.8633 -0.0000
vn -0.7882 0.6154 -0.0000
vn -0.0000 0.5886 0.8084
vn -0.6171 0.5931 0.5171
vn 0.6171 0.5931 0.5171
vn 0.8305 0.5570 -0.0000
vn 0.6171 0.5931 -0.5171
vn -0.0000 0.5886 -0.8084
vn -0.6171 0.5931 -0.5171
vn -0.8305 0.5570 -0.0000
vn -0.7439 -0.1544 0.6503
vn -0.9294 -0.3692 -0.0000
vn 0.0000 -0.3259 0.9454
vn -0.7439 -0.1544 -0.6503
vn 0.0000 -0.3259 -0.9454
vn 0.7439 -0.1544 -0.6503
vn 0.9294 -0.3692 -0.0000
vn 0.7439 -0.1544 0.6503
vn -0.5709 0.6875 0.4488
vn 0.0000 0.7834 0.6216
vn -0.0000 1.0000 -0.0000
vn -0.7106 0.7036 -0.0000
vn 0.5709 0.6875 0.4488
vn 0.7106 0.7036 0.0000
vn 0.5709 0.6875 -0.4488
vn -0.0000 0.7834 -0.6216
vn -0.5709 0.6875 -0.4488
vn 0.0000 0.7835 0.6214
vn -0.4783 0.7831 0.3974
vn 0.4783 0.7831 0.3974
vn 0.7082 0.7061 0.0000
vn 0.4783 0.7831 -0.3974
vn 0.0000 0.7835 -0.6214
vn -0.4783 0.7831 -0.3974
vn -0.7082 0.7061 0.0000
# 140 vertex normals

vt 1.0000 0.0000 0.0000
vt 1.0000 0.5000 0.0000
vt 0.5000 0.5000 0.0000
vt 0.5000 0.0000 0.0000
vt 1.0000 1.0000 0.0000
vt 0.5000 1.0000 0.0000
vt 0.0000 1.0000 0.0000
vt 0.0000 0.5000 0.0000
vt 0.0000 0.0000 0.0000
vt 0.2651 0.2561 0.0000
vt 0.5000 0.1795 0.0000
vt 0.1939 0.5000 0.0000
vt 0.7349 0.2561 0.0000
vt 0.8061 0.5000 0.0000
vt 0.7349 0.7439 0.0000
vt 0.5000 0.8205 0.0000
vt 0.2651 0.7439 0.0000
vt 0.5000 0.2630 0.0000
vt 0.0000 0.2630 0.0000
vt 1.0000 0.2630 0.0000
vt 1.0000 0.5261 0.0000
vt 0.5000 0.5195 0.0000
vt 0.0000 0.5261 0.0000
vt 0.5000 0.0436 0.0000
vt 0.8336 0.1577 0.0000
vt 0.1664 0.1577 0.0000
vt 0.9448 0.5000 0.0000
vt 0.8336 0.8423 0.0000
vt 0.5000 0.9564 0.0000
vt 0.1664 0.8423 0.0000
vt 0.0552 0.5000 0.0000
vt 0.5000 0.7630 0.0000
vt 0.0000 0.7630 0.0000
vt 1.0000 0.7630 0.0000
vt 0.2636 0.2549 0.0000
vt 0.5000 0.1775 0.0000
vt 0.1914 0.5000 0.0000
vt 0.7364 0.2549 0.0000
vt 0.8086 0.5000 0.0000
vt 0.7364 0.7451 0.0000
vt 0.5000 0.8225 0.0000
vt 0.2636 0.7451 0.0000
vt 0.5000 0.2717 0.0000
vt 0.0000 0.2717 0.0000
vt 1.0000 0.2717 0.0000
vt 1.0000 0.5433 0.0000
vt 0.5000 0.5325 0.0000
vt 0.0000 0.5433 0.0000
vt 0.5000 0.0420 0.0000
vt 0.8351 0.1565 0.0000
vt 0.1649 0.1565 0.0000
vt 0.9469 0.5000 0.0000
vt 0.8351 0.8435 0.0000
vt 0.5000 0.9580 0.0000
vt 0.1649 0.8435 0.0000
vt 0.0531 0.5000 0.0000
vt 0.5000 0.7717 0.0000
vt 0.0000 0.7717 0.0000
vt 1.0000 0.7717 0.0000
# 59 texture coords

o Box002
g Box002
f 1/1/1 2/2/2 3/3/3 
f 3/3/3 4/4/4 1/1/1 
f 5/5/5 6/6/6 3/3/3 
f 3/3/3 2/2/2 5/5/5 
f 7/7/7 8/8/8 3/3/3 
f 3/3/3 6/6/6 7/7/7 
f 9/9/9 4/4/4 3/3/3 
f 3/3/3 8/8/8 9/9/9 
f 10/10/10 11/11/11 12/3/12 
f 12/3/12 13/12/13 10/10/10 
f 14/13/14 15/14/15 12/3/12 
f 12/3/12 11/11/11 14/13/14 
f 16/15/16 17/16/17 12/3/12 
f 12/3/12 15/14/15 16/15/16 
f 18/17/18 13/12/13 12/3/12 
f 12/3/12 17/16/17 18/17/18 
f 1/9/1 4/4/4 19/18/19 
f 19/18/19 20/19/20 1/9/1 
f 9/1/9 21/20/21 19/18/19 
f 19/18/19 4/4/4 9/1/9 
f 22/21/22 23/22/23 19/18/19 
f 19/18/19 21/20/21 22/21/22 
f 24/23/24 20/19/20 19/18/19 
f 19/18/19 23/22/23 24/23/24 
f 9/9/9 8/4/8 25/18/25 
f 25/18/25 21/19/21 9/9/9 
f 7/1/7 26/20/26 25/18/25 
f 25/18/25 8/4/8 7/1/7 
f 27/21/27 28/22/28 25/18/25 
f 25/18/25 26/20/26 27/21/27 
f 22/23/22 21/19/21 25/18/25 
f 25/18/25 28/22/28 22/23/22 
f 7/9/7 6/4/6 29/18/29 
f 29/18/29 26/19/26 7/9/7 
f 5/1/5 30/20/30 29/18/29 
f 29/18/29 6/4/6 5/1/5 
f 31/21/31 32/22/32 29/18/29 
f 29/18/29 30/20/30 31/21/31 
f 27/23/27 26/19/26 29/18/29 
f 29/18/29 32/22/32 27/23/27 
f 5/9/5 2/4/2 33/18/33 
f 33/18/33 30/19/30 5/9/5 
f 1/1/1 20/20/20 33/18/33 
f 33/18/33 2/4/2 1/1/1 
f 24/21/24 34/22/34 33/18/33 
f 33/18/33 20/20/20 24/21/24 
f 31/23/31 30/19/30 33/18/33 
f 33/18/33 34/22/34 31/23/31 
f 14/13/14 11/11/11 35/24/35 
f 35/24/35 36/25/36 14/13/14 
f 10/10/10 37/26/37 35/24/35 
f 35/24/35 11/11/11 10/10/10 
f 38/9/38 39/4/39 35/24/35 
f 35/24/35 37/26/37 38/9/38 
f 40/1/40 36/25/36 35/24/35 
f 35/24/35 39/4/39 40/1/40 
f 16/15/16 15/14/15 41/27/41 
f 41/27/41 42/28/42 16/15/16 
f 14/13/14 36/25/36 41/27/41 
f 41/27/41 15/14/15 14/13/14 
f 40/1/40 43/2/43 41/27/41 
f 41/27/41 36/25/36 40/1/40 
f 44/5/44 42/28/42 41/27/41 
f 41/27/41 43/2/43 44/5/44 
f 18/17/18 17/16/17 45/29/45 
f 45/29/45 46/30/46 18/17/18 
f 16/15/16 42/28/42 45/29/45 
f 45/29/45 17/16/17 16/15/16 
f 44/5/44 47/6/47 45/29/45 
f 45/29/45 42/28/42 44/5/44 
f 48/7/48 46/30/46 45/29/45 
f 45/29/45 47/6/47 48/7/48 
f 10/10/10 13/12/13 49/31/49 
f 49/31/49 37/26/37 10/10/10 
f 18/17/18 46/30/46 49/31/49 
f 49/31/49 13/12/13 18/17/18 
f 48/7/48 50/8/50 49/31/49 
f 49/31/49 46/30/46 48/7/48 
f 38/9/38 37/26/37 49/31/49 
f 49/31/49 50/8/50 38/9/38 
f 24/23/24 23/22/23 51/32/51 
f 51/32/51 52/33/52 24/23/24 
f 22/21/22 53/34/53 51/32/51 
f 51/32/51 23/22/23 22/21/22 
f 40/5/40 39/6/39 51/32/51 
f 51/32/51 53/34/53 40/5/40 
f 38/7/38 52/33/52 51/32/51 
f 51/32/51 39/6/39 38/7/38 
f 22/23/22 28/22/28 54/32/54 
f 54/32/54 53/33/53 22/23/22 
f 27/21/27 55/34/55 54/32/54 
f 54/32/54 28/22/28 27/21/27 
f 44/5/44 43/6/43 54/32/54 
f 54/32/54 55/34/55 44/5/44 
f 40/7/40 53/33/53 54/32/54 
f 54/32/54 43/6/43 40/7/40 
f 27/23/27 32/22/32 56/32/56 
f 56/32/56 55/33/55 27/23/27 
f 31/21/31 57/34/57 56/32/56 
f 56/32/56 32/22/32 31/21/31 
f 48/5/48 47/6/47 56/32/56 
f 56/32/56 57/34/57 48/5/48 
f 44/7/44 55/33/55 56/32/56 
f 56/32/56 47/6/47 44/7/44 
f 31/23/31 34/22/34 58/32/58 
f 58/32/58 57/33/57 31/23/31 
f 24/21/24 52/34/52 58/32/58 
f 58/32/58 34/22/34 24/21/24 
f 38/5/38 50/6/50 58/32/58 
f 58/32/58 52/34/52 38/5/38 
f 48/7/48 57/33/57 58/32/58 
f 58/32/58 50/6/50 48/7/48 
f 59/1/59 60/2/60 61/3/3 
f 61/3/3 62/4/61 59/1/59 
f 63/5/62 64/6/63 61/3/3 
f 61/3/3 60/2/60 63/5/62 
f 65/7/64 66/8/65 61/3/3 
f 61/3/3 64/6/63 65/7/64 
f 67/9/66 62/4/61 61/3/3 
f 61/3/3 66/8/65 67/9/66 
f 68/35/67 69/36/68 70/3/69 
f 70/3/69 71/37/70 68/35/67 
f 72/38/71 73/39/72 70/3/69 
f 70/3/69 69/36/68 72/38/71 
f 74/40/73 75/41/74 70/3/69 
f 70/3/69 73/39/72 74/40/73 
f 76/42/75 71/37/70 70/3/69 
f 70/3/69 75/41/74 76/42/75 
f 59/9/59 62/4/61 77/43/76 
f 77/43/76 78/44/77 59/9/59 
f 67/1/66 79/45/78 77/43/76 
f 77/43/76 62/4/61 67/1/66 
f 80/46/79 81/47/80 77/43/76 
f 77/43/76 79/45/78 80/46/79 
f 82/48/81 78/44/77 77/43/76 
f 77/43/76 81/47/80 82/48/81 
f 67/9/66 66/4/65 83/43/82 
f 83/43/82 79/44/78 67/9/66 
f 65/1/64 84/45/83 83/43/82 
f 83/43/82 66/4/65 65/1/64 
f 85/46/84 86/47/85 83/43/82 
f 83/43/82 84/45/83 85/46/84 
f 80/48/79 79/44/78 83/43/82 
f 83/43/82 86/47/85 80/48/79 
f 65/9/64 64/4/63 87/43/86 
f 87/43/86 84/44/83 65/9/64 
f 63/1/62 88/45/87 87/43/86 
f 87/43/86 64/4/63 63/1/62 
f 89/46/88 90/47/89 87/43/86 
f 87/43/86 88/45/87 89/46/88 
f 85/48/84 84/44/83 87/43/86 
f 87/43/86 90/47/89 85/48/84 
f 63/9/62 60/4/60 91/43/90 
f 91/43/90 88/44/87 63/9/62 
f 59/1/59 78/45/77 91/43/90 
f 91/43/90 60/4/60 59/1/59 
f 82/46/81 92/47/91 91/43/90 
f 91/43/90 78/45/77 82/46/81 
f 89/48/88 88/44/87 91/43/90 
f 91/43/90 92/47/91 89/48/88 
f 72/38/71 69/36/68 93/49/92 
f 93/49/92 94/50/93 72/38/71 
f 68/35/67 95/51/94 93/49/92 
f 93/49/92 69/36/68 68/35/67 
f 96/9/95 97/4/96 93/49/92 
f 93/49/92 95/51/94 96/9/95 
f 98/1/97 94/50/93 93/49/92 
f 93/49/92 97/4/96 98/1/97 
f 74/40/73 73/39/72 99/52/98 
f 99/52/98 100/53/99 74/40/73 
f 72/38/71 94/50/93 99/52/98 
f 99/52/98 73/39/72 72/38/71 
f 98/1/97 101/2/100 99/52/98 
f 99/52/98 94/50/93 98/1/97 
f 102/5/101 100/53/99 99/52/98 
f 99/52/98 101/2/100 102/5/101 
f 76/42/75 75/41/74 103/54/102 
f 103/54/102 104/55/103 76/42/75 
f 74/40/73 100/53/99 103/54/102 
f 103/54/102 75/41/74 74/40/73 
f 102/5/101 105/6/104 103/54/102 
f 103/54/102 100/53/99 102/5/101 
f 106/7/105 104/55/103 103/54/102 
f 103/54/102 105/6/104 106/7/105 
f 68/35/67 71/37/70 107/56/106 
f 107/56/106 95/51/94 68/35/67 
f 76/42/75 104/55/103 107/56/106 
f 107/56/106 71/37/70 76/42/75 
f 106/7/105 108/8/107 107/56/106 
f 107/56/106 104/55/103 106/7/105 
f 96/9/95 95/51/94 107/56/106 
f 107/56/106 108/8/107 96/9/95 
f 82/48/81 81/47/80 109/57/108 
f 109/57/108 110/58/109 82/48/81 
f 80/46/79 111/59/110 109/57/108 
f 109/57/108 81/47/80 80/46/79 
f 98/5/97 97/6/96 109/57/108 
f 109/57/108 111/59/110 98/5/97 
f 96/7/95 110/58/109 109/57/108 
f 109/57/108 97/6/96 96/7/95 
f 80/48/79 86/47/85 112/57/111 
f 112/57/111 111/58/110 80/48/79 
f 85/46/84 113/59/112 112/57/111 
f 112/57/111 86/47/85 85/46/84 
f 102/5/101 101/6/100 112/57/111 
f 112/57/111 113/59/112 102/5/101 
f 98/7/97 111/58/110 112/57/111 
f 112/57/111 101/6/100 98/7/97 
f 85/48/84 90/47/89 114/57/113 
f 114/57/113 113/58/112 85/48/84 
f 89/46/88 115/59/114 114/57/113 
f 114/57/113 90/47/89 89/46/88 
f 106/5/105 105/6/104 114/57/113 
f 114/57/113 115/59/114 106/5/105 
f 102/7/101 113/58/112 114/57/113 
f 114/57/113 105/6/104 102/7/101 
f 89/48/88 92/47/91 116/57/115 
f 116/57/115 115/58/114 89/48/88 
f 82/46/81 110/59/109 116/57/115 
f 116/57/115 92/47/91 82/46/81 
f 96/5/95 108/6/107 116/57/115 
f 116/57/115 110/59/109 96/5/95 
f 106/7/105 115/58/114 116/57/115 
f 116/57/115 108/6/107 106/7/105 
f 117/1/116 118/2/117 119/3/3 
f 119/3/3 120/4/118 117/1/116 
f 121/5/119 122/6/120 119/3/3 
f 119/3/3 118/2/117 121/5/119 
f 123/7/121 124/8/122 119/3/3 
f 119/3/3 122/6/120 123/7/121 
f 125/9/123 120/4/118 119/3/3 
f 119/3/3 124/8/122 125/9/123 
f 126/9/124 127/4/125 128/3/126 
f 128/3/126 129/8/127 126/9/124 
f 130/1/128 131/2/129 128/3/126 
f 128/3/126 127/4/125 130/1/128 
f 132/5/130 133/6/131 128/3/126 
f 128/3/126 131/2/129 132/5/130 
f 134/7/132 129/8/127 128/3/126 
f 128/3/126 133/6/131 134/7/132 
f 117/9/116 120/4/118 135/3/133 
f 135/3/133 136/8/134 117/9/116 
f 125/1/123 137/2/135 135/3/133 
f 135/3/133 120/4/118 125/1/123 
f 130/5/128 127/6/125 135/3/133 
f 135/3/133 137/2/135 130/5/128 
f 126/7/124 136/8/134 135/3/133 
f 135/3/133 127/6/125 126/7/124 
f 125/9/123 124/4/122 138/3/136 
f 138/3/136 137/8/135 125/9/123 
f 123/1/121 139/2/137 138/3/136 
f 138/3/136 124/4/122 123/1/121 
f 132/5/130 131/6/129 138/3/136 
f 138/3/136 139/2/137 132/5/130 
f 130/7/128 137/8/135 138/3/136 
f 138/3/136 131/6/129 130/7/128 
f 123/9/121 122/4/120 140/3/138 
f 140/3/138 139/8/137 123/9/121 
f 121/1/119 141/2/139 140/3/138 
f 140/3/138 122/4/120 121/1/119 
f 134/5/132 133/6/131 140/3/138 
f 140/3/138 141/2/139 134/5/132 
f 132/7/130 139/8/137 140/3/138 
f 140/3/138 133/6/131 132/7/130 
f 121/9/119 118/4/117 142/3/140 
f 142/3/140 141/8/139 121/9/119 
f 117/1/116 136/2/134 142/3/140 
f 142/3/140 118/4/117 117/1/116 
f 126/5/124 129/6/127 142/3/140 
f 142/3/140 136/2/134 126/5/124 
f 134/7/132 141/8/139 142/3/140 
f 142/3/140 129/6/127 134/7/132 
# 0 polygons - 272 triangles

