# 3ds Max Wavefront OBJ Exporter v0.99 - (c)2007 guruware
# File Created: 13.12.2024 13:21:07

#
# object Box003
#

v  -0.1043 0.8029 -0.7544
v  -0.1043 0.8879 -2.1647
v  0.1043 0.8879 -2.1647
v  0.1043 0.8029 -0.7544
v  0.0312 0.9473 -0.7457
v  0.0312 1.0323 -2.1560
v  -0.1043 1.0323 -2.1560
v  -0.1043 0.9473 -0.7457
v  0.1043 0.8743 -0.7501
v  0.0858 0.9288 -0.7468
v  0.1043 0.9594 -2.1604
v  0.0858 1.0138 -2.1571
v  -0.1043 0.4350 -0.7547
v  -0.1043 0.3418 -2.1644
v  0.1043 0.3418 -2.1644
v  0.1043 0.4350 -0.7547
v  -0.1043 0.5793 -0.7642
v  0.1043 0.5793 -0.7642
v  0.1043 0.4862 -2.1740
v  -0.1043 0.4862 -2.1740
v  -0.1043 0.8029 0.7051
v  -0.1043 0.8879 -0.7051
v  0.1043 0.8879 -0.7051
v  0.1043 0.8029 0.7051
v  0.0312 0.9473 0.7138
v  0.0312 1.0323 -0.6964
v  -0.1043 1.0323 -0.6964
v  -0.1043 0.9473 0.7138
v  0.1043 0.8743 0.7094
v  0.0858 0.9288 0.7127
v  0.1043 0.9594 -0.7008
v  0.0858 1.0138 -0.6975
v  -0.1043 0.4350 0.7049
v  -0.1043 0.3418 -0.7049
v  0.1043 0.3418 -0.7049
v  0.1043 0.4350 0.7049
v  -0.1043 0.5793 0.6953
v  0.1043 0.5793 0.6953
v  0.1043 0.4862 -0.7144
v  -0.1043 0.4862 -0.7144
v  -0.1594 0.0001 0.9114
v  -0.1594 0.0001 0.6055
v  0.1594 0.0001 0.6055
v  0.1594 0.0001 0.9114
v  0.0738 1.3691 0.7232
v  0.0738 1.3691 0.5900
v  -0.0738 1.3691 0.5900
v  -0.0738 1.3691 0.7232
v  0.1772 1.1144 0.8457
v  -0.1772 1.1144 0.8457
v  0.1772 1.1150 0.5054
v  -0.1772 1.1150 0.5054
v  -0.1743 0.0001 -0.6251
v  -0.1743 0.0001 -0.9114
v  0.1743 0.0001 -0.9114
v  0.1743 0.0001 -0.5950
v  0.0302 1.2411 -0.5755
v  0.0302 1.2411 -0.6243
v  -0.0531 1.2411 -0.6243
v  -0.0531 1.2411 -0.5755
v  0.2109 1.0789 -0.5037
v  -0.2109 1.0790 -0.4968
v  0.2101 1.0556 -0.8256
v  0.2136 1.1600 -0.5034
v  -0.2109 1.0779 -0.8238
v  -0.1320 1.1595 -0.8172
v  -0.1476 1.2921 0.8027
v  0.1476 1.2921 0.8027
v  0.1476 1.2923 0.5219
v  -0.1476 1.2923 0.5219
v  0.1581 1.2161 -0.5532
v  -0.1320 1.1600 -0.5034
v  -0.0774 1.2159 -0.7552
v  0.1570 1.1838 -0.7578
# 74 vertices

vn -0.5773 -0.6111 0.5415
vn -0.5774 -0.5415 -0.6111
vn 0.5774 -0.5416 -0.6111
vn 0.5774 -0.6110 0.5416
vn 0.1205 0.6887 0.7149
vn 0.1205 0.7696 -0.6271
vn -0.5774 0.6111 -0.5416
vn -0.5774 0.5415 0.6111
vn 0.7305 0.0798 0.6783
vn 0.5549 0.5166 0.6521
vn 0.7304 0.1607 -0.6638
vn 0.5549 0.5912 -0.5853
vn -0.5774 -0.5380 0.6142
vn -0.5774 -0.6142 -0.5379
vn 0.5774 -0.6142 -0.5380
vn 0.5774 -0.5380 0.6142
vn -0.5774 0.6142 0.5380
vn 0.5774 0.6142 0.5380
vn 0.5774 0.5381 -0.6141
vn -0.5774 0.5380 -0.6142
vn -0.5774 -0.6111 0.5416
vn -0.5773 0.6111 -0.5415
vn 0.5549 0.5913 -0.5852
vn -0.5694 -0.5656 0.5966
vn -0.5770 -0.6045 -0.5493
vn 0.5770 -0.6045 -0.5493
vn 0.5694 -0.5656 0.5966
vn 0.3105 0.9047 0.2918
vn 0.3063 0.8946 -0.3255
vn -0.3061 0.8946 -0.3256
vn -0.3103 0.9047 0.2920
vn 0.7024 0.1469 0.6964
vn -0.7024 0.1469 0.6965
vn 0.7052 0.0509 -0.7072
vn -0.7052 0.0509 -0.7072
vn -0.5935 -0.6202 0.5129
vn -0.5628 -0.5637 -0.6045
vn 0.5628 -0.5637 -0.6045
vn 0.5518 -0.6111 0.5675
vn 0.0593 0.9219 0.3829
vn 0.0909 0.9793 -0.1806
vn -0.3409 0.9361 -0.0865
vn -0.3032 0.8956 0.3256
vn 0.7029 -0.0541 0.7093
vn -0.7128 0.2571 0.6525
vn 0.6909 0.2391 -0.6823
vn 0.5407 -0.1891 -0.8197
vn 0.0037 0.3562 0.9344
vn -0.7228 0.3124 -0.6164
vn -0.3644 0.6588 -0.6582
vn -0.0090 0.5618 -0.8272
vn -0.6161 0.5162 0.5949
vn 0.6162 0.5162 0.5949
vn 0.6181 0.4601 -0.6374
vn -0.6180 0.4600 -0.6375
vn 0.3812 0.8759 0.2958
vn -0.4244 0.5959 0.6818
vn -0.2625 0.8865 -0.3812
vn 0.4687 0.7262 -0.5029
# 59 vertex normals

vt 1.0000 0.0000 0.0000
vt 1.0000 1.0000 0.0000
vt 0.0000 1.0000 0.0000
vt 0.0000 0.0000 0.0000
vt 0.6498 0.0000 0.0000
vt 0.6498 1.0000 0.0000
vt 1.0000 0.4950 0.0000
vt 0.0000 0.4950 0.0000
vt 0.3502 1.0000 0.0000
vt 0.7036 0.3088 0.0000
vt 0.7036 0.6912 0.0000
vt 0.2964 0.6912 0.0000
vt 0.2964 0.3088 0.0000
vt 1.0000 0.8137 0.0000
vt 0.0000 0.8137 0.0000
vt 0.5697 0.4099 0.0000
vt 0.5697 0.5326 0.0000
vt 0.3774 0.5326 0.0000
vt 0.3774 0.4099 0.0000
vt 1.0000 0.8693 0.0000
vt 0.0000 0.8685 0.0000
vt 1.0000 0.8500 0.0000
vt 0.0000 0.8693 0.0000
vt 1.0000 0.8685 0.0000
vt 0.0000 0.8500 0.0000
vt 1.0000 0.4099 0.0000
vt 0.3774 1.0000 0.0000
vt 0.4099 1.0000 0.0000
vt 0.6226 1.0000 0.0000
# 29 texture coords

o Box003
g Box003
f 1/1/1 2/2/2 3/3/3 
f 3/3/3 4/4/4 1/1/1 
f 5/5/5 6/6/6 7/3/7 
f 7/3/7 8/4/8 5/5/5 
f 4/1/4 9/7/9 10/2/10 
f 4/1/4 10/2/10 5/6/5 
f 4/1/4 5/6/5 8/3/8 
f 1/4/1 4/1/4 8/3/8 
f 3/1/3 11/7/11 9/8/9 
f 9/8/9 4/4/4 3/1/3 
f 2/1/2 7/2/7 6/9/6 
f 6/9/6 12/3/12 11/8/11 
f 2/1/2 6/9/6 11/8/11 
f 3/4/3 2/1/2 11/8/11 
f 2/4/2 1/1/1 8/2/8 
f 8/2/8 7/3/7 2/4/2 
f 6/6/6 5/5/5 10/1/10 
f 10/1/10 12/2/12 6/6/6 
f 9/8/9 11/7/11 12/2/12 
f 12/2/12 10/3/10 9/8/9 
f 13/1/13 14/2/14 15/3/15 
f 15/3/15 16/4/16 13/1/13 
f 17/4/17 18/1/18 19/2/19 
f 19/2/19 20/3/20 17/4/17 
f 13/4/13 16/1/16 18/2/18 
f 18/2/18 17/3/17 13/4/13 
f 16/4/16 15/1/15 19/2/19 
f 19/2/19 18/3/18 16/4/16 
f 15/4/15 14/1/14 20/2/20 
f 20/2/20 19/3/19 15/4/15 
f 14/4/14 13/1/13 17/2/17 
f 17/2/17 20/3/20 14/4/14 
f 21/1/21 22/2/2 23/3/3 
f 23/3/3 24/4/4 21/1/21 
f 25/5/5 26/6/6 27/3/22 
f 27/3/22 28/4/8 25/5/5 
f 24/1/4 29/7/9 30/2/10 
f 24/1/4 30/2/10 25/6/5 
f 24/1/4 25/6/5 28/3/8 
f 21/4/21 24/1/4 28/3/8 
f 23/1/3 31/7/11 29/8/9 
f 29/8/9 24/4/4 23/1/3 
f 22/1/2 27/2/22 26/9/6 
f 26/9/6 32/3/23 31/8/11 
f 22/1/2 26/9/6 31/8/11 
f 23/4/3 22/1/2 31/8/11 
f 22/4/2 21/1/21 28/2/8 
f 28/2/8 27/3/22 22/4/2 
f 26/6/6 25/5/5 30/1/10 
f 30/1/10 32/2/23 26/6/6 
f 29/8/9 31/7/11 32/2/23 
f 32/2/23 30/3/10 29/8/9 
f 33/1/13 34/2/14 35/3/15 
f 35/3/15 36/4/16 33/1/13 
f 37/4/17 38/1/18 39/2/19 
f 39/2/19 40/3/20 37/4/17 
f 33/4/13 36/1/16 38/2/18 
f 38/2/18 37/3/17 33/4/13 
f 36/4/16 35/1/15 39/2/19 
f 39/2/19 38/3/18 36/4/16 
f 35/4/15 34/1/14 40/2/20 
f 40/2/20 39/3/19 35/4/15 
f 34/4/14 33/1/13 37/2/17 
f 37/2/17 40/3/20 34/4/14 
f 41/1/24 42/2/25 43/3/26 
f 43/3/26 44/4/27 41/1/24 
f 45/10/28 46/11/29 47/12/30 
f 47/12/30 48/13/31 45/10/28 
f 44/1/27 49/14/32 50/15/33 
f 50/15/33 41/4/24 44/1/27 
f 43/1/26 51/14/34 49/15/32 
f 49/15/32 44/4/27 43/1/26 
f 42/1/25 52/14/35 51/15/34 
f 51/15/34 43/4/26 42/1/25 
f 42/4/25 41/1/24 50/14/33 
f 50/14/33 52/15/35 42/4/25 
f 53/1/36 54/2/37 55/3/38 
f 55/3/38 56/4/39 53/1/36 
f 57/16/40 58/17/41 59/18/42 
f 59/18/42 60/19/43 57/16/40 
f 56/1/39 61/20/44 62/21/45 
f 62/21/45 53/4/36 56/1/39 
f 55/1/38 63/22/46 64/3/47 
f 64/3/47 64/3/48 61/23/44 
f 55/1/38 64/3/47 61/23/44 
f 56/4/39 55/1/38 61/23/44 
f 54/1/37 65/24/49 66/2/50 
f 66/2/50 66/2/51 63/25/46 
f 54/1/37 66/2/50 63/25/46 
f 55/4/38 54/1/37 63/25/46 
f 53/1/36 62/24/45 65/21/49 
f 65/21/49 54/4/37 53/1/36 
f 45/10/28 48/13/31 67/4/52 
f 67/4/52 68/1/53 45/10/28 
f 46/11/29 45/10/28 68/1/53 
f 68/1/53 69/2/54 46/11/29 
f 47/12/30 46/11/29 69/2/54 
f 69/2/54 70/3/55 47/12/30 
f 48/13/31 47/12/30 70/3/55 
f 70/3/55 67/4/52 48/13/31 
f 50/15/33 49/14/32 68/2/53 
f 68/2/53 67/3/52 50/15/33 
f 49/15/32 51/14/34 69/2/54 
f 69/2/54 68/3/53 49/15/32 
f 51/15/34 52/14/35 70/2/55 
f 70/2/55 69/3/54 51/15/34 
f 52/15/35 50/14/33 67/2/52 
f 67/2/52 70/3/55 52/15/35 
f 71/26/56 57/16/40 60/19/43 
f 60/19/43 72/4/57 64/1/48 
f 71/26/56 60/19/43 64/1/48 
f 64/1/47 71/26/56 64/1/48 
f 59/18/42 73/27/58 66/3/51 
f 59/18/42 66/3/51 66/3/50 
f 59/18/42 66/3/50 72/4/57 
f 60/19/43 59/18/42 72/4/57 
f 62/21/45 61/20/44 64/2/48 
f 64/2/48 72/3/57 62/21/45 
f 65/21/49 62/24/45 72/2/57 
f 72/2/57 66/3/50 65/21/49 
f 58/17/41 57/16/40 71/26/56 
f 71/26/56 74/2/59 58/17/41 
f 59/18/42 58/17/41 74/2/59 
f 74/2/59 73/27/58 59/18/42 
f 64/3/47 63/22/46 74/2/59 
f 74/2/59 71/28/56 64/3/47 
f 63/25/46 66/2/51 73/29/58 
f 73/29/58 74/3/59 63/25/46 
# 0 polygons - 128 triangles

