# 3ds Max Wavefront OBJ Exporter v0.99 - (c)2007 guruware
# File Created: 13.12.2024 21:44:02

#
# object Box002
#

v  5.9133 7.1711 -5.4017
v  5.9133 6.9458 -5.7120
v  5.9133 7.0589 -6.0783
v  5.9133 7.3341 -6.4630
v  5.9133 7.6444 -6.6883
v  5.9133 8.0107 -6.5753
v  5.9133 15.5153 -1.2061
v  5.9133 14.6757 -0.0326
v  0.0000 7.0589 -6.0783
v  0.0000 7.3341 -6.4630
v  0.0000 14.6757 -0.0326
v  0.0000 7.1711 -5.4017
v  0.0000 8.0107 -6.5753
v  0.0000 15.5153 -1.2061
v  -5.9133 15.5153 -1.2061
v  -5.9133 8.0107 -6.5753
v  -5.9133 7.6444 -6.6883
v  -5.9133 7.3341 -6.4630
v  -5.9133 7.0589 -6.0783
v  -5.9133 6.9458 -5.7120
v  -5.9133 7.1711 -5.4017
v  -5.9133 14.6757 -0.0326
v  5.9133 15.5153 1.2061
v  5.9133 8.0107 6.5753
v  5.9133 7.6444 6.6883
v  5.9133 7.3341 6.4630
v  5.9133 7.0589 6.0783
v  5.9133 6.9458 5.7120
v  5.9133 7.1711 5.4017
v  5.9133 14.6757 0.0326
v  0.0000 7.3341 6.4630
v  0.0000 7.0589 6.0783
v  0.0000 14.6757 0.0326
v  0.0000 7.1711 5.4017
v  0.0000 8.0107 6.5753
v  0.0000 15.5153 1.2061
v  -5.9133 7.1711 5.4017
v  -5.9133 6.9458 5.7120
v  -5.9133 7.0589 6.0783
v  -5.9133 7.3341 6.4630
v  -5.9133 7.6444 6.6883
v  -5.9133 8.0107 6.5753
v  -5.9133 15.5153 1.2061
v  -5.9133 14.6757 0.0326
v  0.0000 6.9458 -5.7120
v  0.0000 7.6444 -6.6883
v  0.0000 7.6444 6.6883
v  0.0000 6.9458 5.7120
# 48 vertices

vn 0.6728 -0.5213 0.5250
vn 0.6189 -0.7748 0.1285
vn 0.6728 -0.6629 -0.3285
vn 0.6728 -0.5250 -0.5213
vn 0.6189 -0.1285 -0.7748
vn 0.6728 0.3286 -0.6629
vn 0.5774 0.8055 -0.1336
vn 0.5774 0.1336 0.8055
vn 0.0000 -0.8960 -0.4441
vn 0.0000 -0.7096 -0.7046
vn 0.0000 0.1636 0.9865
vn 0.0000 -0.7046 0.7096
vn 0.0000 0.4441 -0.8960
vn 0.0000 0.9865 -0.1636
vn -0.5774 0.8055 -0.1336
vn -0.6728 0.3286 -0.6629
vn -0.6189 -0.1285 -0.7748
vn -0.6728 -0.5250 -0.5213
vn -0.6728 -0.6629 -0.3285
vn -0.6189 -0.7748 0.1285
vn -0.6728 -0.5213 0.5250
vn -0.5774 0.1336 0.8055
vn 0.5774 0.8055 0.1336
vn 0.6728 0.3286 0.6629
vn 0.6189 -0.1285 0.7748
vn 0.6728 -0.5250 0.5213
vn 0.6728 -0.6629 0.3286
vn 0.6189 -0.7748 -0.1285
vn 0.6728 -0.5213 -0.5250
vn 0.5774 0.1336 -0.8055
vn 0.0000 -0.7096 0.7046
vn -0.0000 -0.8960 0.4441
vn 0.0000 0.1636 -0.9865
vn 0.0000 -0.7046 -0.7096
vn 0.0000 0.4441 0.8960
vn 0.0000 0.9865 0.1636
vn -0.6728 -0.5213 -0.5250
vn -0.6189 -0.7748 -0.1285
vn -0.6728 -0.6629 0.3286
vn -0.6728 -0.5250 0.5213
vn -0.6189 -0.1285 0.7748
vn -0.6728 0.3286 0.6629
vn -0.5774 0.8055 0.1336
vn -0.5774 0.1336 -0.8055
vn 0.0000 -0.9865 0.1636
vn 0.0000 -0.1636 -0.9865
vn 0.0000 -0.1636 0.9865
vn -0.0000 -0.9865 -0.1636
# 48 vertex normals

vt 0.9501 0.0000 0.0000
vt 1.0000 0.0000 0.0000
vt 1.0000 0.3361 0.0000
vt 1.0000 0.6639 0.0000
vt 1.0000 1.0000 0.0000
vt 0.9501 1.0000 0.0000
vt 0.0000 1.0000 0.0000
vt 0.0000 0.0000 0.0000
vt 0.5000 0.3361 0.0000
vt 0.5000 0.6639 0.0000
vt 0.0000 0.6639 0.0000
vt 0.0000 0.3361 0.0000
vt 0.0000 0.9501 0.0000
vt 0.5000 0.0000 0.0000
vt 0.5000 0.9501 0.0000
vt 1.0000 0.9501 0.0000
vt 0.5000 1.0000 0.0000
# 17 texture coords

o Box002
g Box002
f 1/1/1 2/2/2 3/3/3 
f 3/3/3 4/4/4 5/5/5 
f 1/1/1 3/3/3 5/5/5 
f 5/5/5 6/6/6 7/7/7 
f 1/1/1 5/5/5 7/7/7 
f 8/8/8 1/1/1 7/7/7 
f 9/9/9 10/10/10 4/11/4 
f 4/11/4 3/12/3 9/9/9 
f 1/13/1 8/8/8 11/14/11 
f 11/14/11 12/15/12 1/13/1 
f 7/2/7 6/16/6 13/15/13 
f 13/15/13 14/14/14 7/2/7 
f 8/2/8 7/5/7 14/17/14 
f 14/17/14 11/14/11 8/2/8 
f 15/7/15 16/6/16 17/5/17 
f 17/5/17 18/4/18 19/3/19 
f 19/3/19 20/2/20 21/1/21 
f 17/5/17 19/3/19 21/1/21 
f 15/7/15 17/5/17 21/1/21 
f 22/8/22 15/7/15 21/1/21 
f 18/11/18 10/10/10 9/9/9 
f 9/9/9 19/12/19 18/11/18 
f 11/14/11 22/8/22 21/13/21 
f 21/13/21 12/15/12 11/14/11 
f 13/15/13 16/16/16 15/2/15 
f 15/2/15 14/14/14 13/15/13 
f 22/2/22 11/14/11 14/17/14 
f 14/17/14 15/5/15 22/2/22 
f 23/7/23 24/6/24 25/5/25 
f 25/5/25 26/4/26 27/3/27 
f 27/3/27 28/2/28 29/1/29 
f 25/5/25 27/3/27 29/1/29 
f 23/7/23 25/5/25 29/1/29 
f 30/8/30 23/7/23 29/1/29 
f 26/11/26 31/10/31 32/9/32 
f 32/9/32 27/12/27 26/11/26 
f 33/14/33 30/8/30 29/13/29 
f 29/13/29 34/15/34 33/14/33 
f 35/15/35 24/16/24 23/2/23 
f 23/2/23 36/14/36 35/15/35 
f 30/2/30 33/14/33 36/17/36 
f 36/17/36 23/5/23 30/2/30 
f 37/1/37 38/2/38 39/3/39 
f 39/3/39 40/4/40 41/5/41 
f 37/1/37 39/3/39 41/5/41 
f 41/5/41 42/6/42 43/7/43 
f 37/1/37 41/5/41 43/7/43 
f 44/8/44 37/1/37 43/7/43 
f 32/9/32 31/10/31 40/11/40 
f 40/11/40 39/12/39 32/9/32 
f 37/13/37 44/8/44 33/14/33 
f 33/14/33 34/15/34 37/13/37 
f 43/2/43 42/16/42 35/15/35 
f 35/15/35 36/14/36 43/2/43 
f 44/2/44 43/5/43 36/17/36 
f 36/17/36 33/14/33 44/2/44 
f 9/9/9 3/12/3 2/8/2 
f 2/8/2 45/14/45 9/9/9 
f 4/11/4 10/10/10 46/17/46 
f 46/17/46 5/7/5 4/11/4 
f 1/13/1 12/15/12 45/17/45 
f 45/17/45 2/7/2 1/13/1 
f 13/15/13 6/16/6 5/5/5 
f 5/5/5 46/17/46 13/15/13 
f 10/10/10 18/11/18 17/7/17 
f 17/7/17 46/17/46 10/10/10 
f 19/12/19 9/9/9 45/14/45 
f 45/14/45 20/8/20 19/12/19 
f 12/15/12 21/13/21 20/7/20 
f 20/7/20 45/17/45 12/15/12 
f 16/16/16 13/15/13 46/17/46 
f 46/17/46 17/5/17 16/16/16 
f 31/10/31 26/11/26 25/7/25 
f 25/7/25 47/17/47 31/10/31 
f 27/12/27 32/9/32 48/14/48 
f 48/14/48 28/8/28 27/12/27 
f 34/15/34 29/13/29 28/7/28 
f 28/7/28 48/17/48 34/15/34 
f 24/16/24 35/15/35 47/17/47 
f 47/17/47 25/5/25 24/16/24 
f 32/9/32 39/12/39 38/8/38 
f 38/8/38 48/14/48 32/9/32 
f 40/11/40 31/10/31 47/17/47 
f 47/17/47 41/7/41 40/11/40 
f 37/13/37 34/15/34 48/17/48 
f 48/17/48 38/7/38 37/13/37 
f 35/15/35 42/16/42 41/5/41 
f 41/5/41 47/17/47 35/15/35 
# 0 polygons - 88 triangles

#
# object Box003
#

v  6.6039 15.5764 -0.9183
v  6.6039 15.5764 1.0068
v  6.6039 14.5685 1.0068
v  6.6039 14.5685 -0.9183
v  -6.5295 14.5685 1.0068
v  -6.5295 15.5764 1.0068
v  -6.5295 15.5764 -0.9183
v  -6.5295 14.5685 -0.9183
v  6.0834 14.0855 1.0068
v  -6.0090 14.0855 1.0068
v  -6.0090 14.0855 -0.9183
v  6.0834 14.0855 -0.9183
v  6.3436 15.8179 1.0068
v  6.3436 14.3270 1.0068
v  -6.2693 15.8179 1.0068
v  -6.2693 14.3270 1.0068
v  6.0834 16.0594 -0.4353
v  -6.0090 16.0594 -0.4353
v  -6.0090 16.0594 0.5238
v  6.0834 16.0594 0.5238
v  6.3436 15.8179 -0.9183
v  6.3436 14.3270 -0.9183
v  -6.2693 14.3270 -0.9183
v  -6.2693 15.8179 -0.9183
v  6.2135 15.9387 -0.6768
v  6.2135 15.9387 0.7653
v  -6.1391 15.9387 0.7653
v  -6.1391 15.9387 -0.6768
# 28 vertices

vn 0.7173 0.2971 -0.6303
vn 0.7173 0.2971 0.6303
vn 0.7173 -0.2971 0.6303
vn 0.7173 -0.2971 -0.6303
vn -0.7173 -0.2971 0.6303
vn -0.7173 0.2971 0.6303
vn -0.7173 0.2971 -0.6303
vn -0.7173 -0.2971 -0.6303
vn 0.2971 -0.7173 0.6303
vn -0.2971 -0.7173 0.6303
vn -0.2971 -0.7173 -0.6303
vn 0.2971 -0.7173 -0.6303
vn 0.7735 -0.3204 -0.5469
vn 0.5000 -0.5000 0.7071
vn 0.6379 -0.1565 0.7540
vn 0.8803 0.4009 0.2535
vn -0.7497 0.3963 0.5301
vn -0.5000 -0.5000 0.7071
vn 0.3241 0.9321 -0.1616
vn -0.3241 0.9321 -0.1616
vn -0.3241 0.9321 0.1616
vn 0.3241 0.9321 0.1616
vn 0.1968 -0.1220 -0.9728
vn 0.5000 -0.5000 -0.7071
vn -0.5000 -0.5000 -0.7071
vn -0.0000 0.0000 1.0000
vn -0.3721 0.6198 -0.6910
vn 0.6379 -0.1565 -0.7540
vn 0.3913 0.8863 -0.2475
vn 0.3913 0.8863 0.2475
vn -0.3913 0.8863 0.2475
vn -0.3913 0.8863 -0.2475
# 32 vertex normals

vt 1.0000 0.7553 0.0000
vt 0.0000 0.7553 0.0000
vt 0.0000 0.2447 0.0000
vt 1.0000 0.2447 0.0000
vt 1.0000 0.0396 0.0000
vt 1.0000 0.9604 0.0000
vt 0.0000 0.9604 0.0000
vt 0.0000 0.0396 0.0000
vt 0.2447 0.0000 0.0000
vt 0.7553 0.0000 0.0000
vt 1.0000 0.0000 0.0000
vt 0.0000 0.0000 0.0000
vt 1.0000 1.0000 0.0000
vt 0.7553 1.0000 0.0000
vt 0.2447 1.0000 0.0000
vt 0.0000 1.0000 0.0000
vt 0.7491 0.0396 0.0000
vt 0.7491 0.9604 0.0000
vt 0.2509 0.9604 0.0000
vt 0.2509 0.0396 0.0000
# 20 texture coords

o Box003
g Box003
f 49/18/49 50/19/50 51/20/51 
f 51/20/51 52/21/52 49/18/49 
f 53/21/53 54/18/54 55/19/55 
f 55/19/55 56/20/56 53/21/53 
f 57/22/57 58/23/58 59/24/59 
f 59/24/59 60/25/60 57/22/57 
f 51/26/51 50/27/50 61/28/61 
f 62/29/62 51/26/51 61/28/61 
f 57/25/57 62/29/62 61/28/61 
f 61/28/63 63/30/64 63/30/65 
f 61/28/63 63/30/65 54/31/54 
f 54/31/54 53/32/53 64/33/66 
f 54/31/54 64/33/66 58/24/58 
f 61/28/63 54/31/54 58/24/58 
f 61/28/61 61/28/63 58/24/58 
f 57/25/57 61/28/61 58/24/58 
f 65/34/67 66/35/68 67/36/69 
f 67/36/69 68/37/70 65/34/67 
f 69/29/71 49/26/49 52/27/52 
f 69/29/71 52/27/52 70/28/72 
f 69/29/71 70/28/72 60/22/60 
f 69/29/71 60/22/60 59/23/59 
f 71/30/73 56/31/56 55/32/55 
f 59/23/59 71/30/73 55/32/55 
f 55/32/55 72/33/74 72/33/75 
f 59/23/59 55/32/55 72/33/75 
f 69/29/71 59/23/59 72/33/75 
f 69/29/76 69/29/71 72/33/75 
f 50/19/50 49/18/49 69/30/71 
f 69/30/71 61/33/61 50/19/50 
f 52/21/52 51/20/51 62/29/62 
f 62/29/62 70/28/72 52/21/52 
f 53/21/53 56/20/56 71/29/73 
f 71/29/73 64/28/66 53/21/53 
f 55/19/55 54/18/54 63/30/65 
f 63/30/65 72/33/74 55/19/55 
f 57/22/57 60/25/60 70/29/72 
f 70/29/72 62/28/62 57/22/57 
f 59/24/59 58/23/58 64/30/66 
f 64/30/66 71/33/73 59/24/59 
f 73/22/77 65/34/67 68/37/70 
f 69/28/76 73/22/77 68/37/70 
f 69/28/76 68/37/70 74/25/78 
f 69/28/76 74/25/78 61/29/63 
f 69/28/76 61/29/63 61/29/61 
f 69/28/76 61/29/61 69/28/71 
f 75/24/79 67/36/69 66/35/68 
f 75/24/79 66/35/68 76/23/80 
f 75/24/79 76/23/80 72/30/75 
f 75/24/79 72/30/75 72/30/74 
f 75/24/79 72/30/74 63/33/65 
f 63/33/64 75/24/79 63/33/65 
f 63/30/64 61/28/63 74/22/78 
f 74/22/78 75/23/79 63/30/64 
f 66/35/68 65/34/67 73/22/77 
f 73/22/77 76/23/80 66/35/68 
f 68/37/70 67/36/69 75/24/79 
f 75/24/79 74/25/78 68/37/70 
f 69/29/76 72/33/75 76/24/80 
f 76/24/80 73/25/77 69/29/76 
# 0 polygons - 60 triangles

