# 3ds Max Wavefront OBJ Exporter v0.99 - (c)2007 guruware
# File Created: 14.12.2024 13:55:36

#
# object Box002
#

v  -0.8097 10.8929 -0.4633
v  4.0076 10.6775 -0.3391
v  4.4407 5.7799 -0.3391
v  -0.3766 4.8715 -0.4633
v  -0.3766 4.8715 0.4424
v  4.4407 5.7799 0.3182
v  4.0076 10.6775 0.3182
v  -0.8097 10.8929 0.4424
v  -5.3934 10.5632 -0.4633
v  -4.9603 4.5418 -0.4633
v  -4.9603 4.5418 0.4424
v  -5.3934 10.5632 0.4424
v  6.2745 8.4867 -0.3391
v  6.2745 8.4867 0.3182
# 14 vertices

vn -0.0019 0.7166 -0.6975
vn 0.2935 0.7152 -0.6343
vn 0.4124 -0.6603 -0.6276
vn 0.0910 -0.7105 -0.6978
vn 0.0911 -0.7104 0.6979
vn 0.4123 -0.6603 0.6277
vn 0.2934 0.7152 0.6344
vn -0.0018 0.7165 0.6976
vn -0.6178 0.5346 -0.5766
vn -0.5339 -0.6171 -0.5780
vn -0.5339 -0.6171 0.5781
vn -0.6179 0.5345 0.5767
vn 0.8089 0.0851 -0.5817
vn 0.8089 0.0851 0.5817
# 14 vertex normals

vt 0.6000 1.0000 0.0000
vt 0.2667 1.0000 0.0000
vt 0.2667 0.0000 0.0000
vt 0.6000 0.0000 0.0000
vt 0.4000 0.0000 0.0000
vt 0.7333 0.0000 0.0000
vt 0.7333 1.0000 0.0000
vt 0.4000 1.0000 0.0000
vt 0.0000 0.0000 0.0000
vt 1.0000 0.0000 0.0000
vt 1.0000 1.0000 0.0000
vt 0.0000 1.0000 0.0000
# 12 texture coords

o Box002
g Box002
f 1/1/1 2/2/2 3/3/3 
f 3/3/3 4/4/4 1/1/1 
f 5/5/5 6/6/6 7/7/7 
f 7/7/7 8/8/8 5/5/5 
f 4/5/4 3/6/3 6/7/6 
f 6/7/6 5/8/5 4/5/4 
f 2/3/2 1/4/1 8/1/8 
f 8/1/8 7/2/7 2/3/2 
f 9/9/9 10/10/10 11/11/11 
f 11/11/11 12/12/12 9/9/9 
f 2/2/2 13/12/13 3/3/3 
f 1/1/1 4/4/4 10/10/10 
f 10/10/10 9/11/9 1/1/1 
f 6/6/6 14/10/14 7/7/7 
f 5/5/5 8/8/8 12/12/12 
f 12/12/12 11/9/11 5/5/5 
f 13/10/13 14/11/14 6/7/6 
f 6/7/6 3/6/3 13/10/13 
f 4/5/4 5/8/5 11/12/11 
f 11/12/11 10/9/10 4/5/4 
f 9/10/9 12/11/12 8/1/8 
f 8/1/8 1/4/1 9/10/9 
f 2/3/2 7/2/7 14/12/14 
f 14/12/14 13/9/13 2/3/2 
# 0 polygons - 24 triangles

