# 3ds Max Wavefront OBJ Exporter v0.99 - (c)2007 guruware
# File Created: 14.12.2024 13:48:10

#
# object Box001
#

v  -0.3190 -0.0000 0.2910
v  -0.3988 -0.0000 0.1936
v  -0.3988 -0.0000 -0.1952
v  -0.3192 -0.0000 -0.2913
v  -0.0803 -0.0000 -0.3109
v  0.0804 -0.0000 -0.3015
v  0.3192 0.0000 -0.2538
v  0.3988 0.0000 -0.1483
v  0.3988 0.0000 0.1490
v  0.3191 0.0000 0.2545
v  0.0800 0.0000 0.3019
v  -0.0797 0.0000 0.3111
v  -0.0517 7.7935 0.1370
v  -0.0486 7.7935 0.1373
v  -0.0105 7.7935 0.1347
v  0.0341 7.7935 0.1241
v  0.0491 7.7935 0.1005
v  0.0491 7.7935 -0.1008
v  0.0341 7.7935 -0.1246
v  -0.0108 7.7935 -0.1352
v  -0.0490 7.7935 -0.1379
v  -0.0520 7.7935 -0.1376
v  -0.0531 7.7935 -0.1361
v  -0.0531 7.7935 0.1350
v  0.2462 4.3088 0.1511
v  -0.2461 3.3302 0.1128
v  0.3988 3.8967 -0.0602
v  0.3988 4.6153 0.0402
v  0.0251 4.3463 -0.2250
v  -0.0484 7.4726 -0.2394
v  0.0527 7.4725 -0.2318
v  0.1092 3.9701 -0.2056
v  -0.3817 3.0176 -0.0192
v  -0.2816 4.4204 -0.1283
v  0.2614 7.4726 -0.1108
v  0.2615 7.4727 0.1097
v  -0.2646 7.4737 0.1421
v  -0.2581 7.4726 -0.1488
v  0.0611 7.4735 0.2285
v  -0.0629 7.4736 0.2348
v  0.3606 4.5370 0.1285
v  -0.3563 3.1003 0.0747
v  0.3264 3.9151 -0.1572
v  -0.1964 4.4010 -0.2129
v  -0.2051 7.4726 -0.2244
v  0.2092 7.4726 -0.1940
v  0.2115 7.4729 0.1923
v  -0.2145 7.4736 0.2184
v  -0.2121 7.7135 0.1456
v  -0.1729 7.7135 0.2032
v  -0.0554 7.7135 0.2152
v  0.0382 7.7135 0.2094
v  0.1658 7.7133 0.1790
v  0.2083 7.7133 0.1109
v  0.2083 7.7133 -0.1114
v  0.1652 7.7133 -0.1797
v  0.0361 7.7132 -0.2106
v  -0.0518 7.7133 -0.2169
v  -0.1707 7.7133 -0.2053
v  -0.2105 7.7133 -0.1482
# 60 vertices

vn -0.4773 -0.5759 0.6637
vn -0.7403 -0.6489 0.1758
vn -0.7379 -0.6526 -0.1723
vn -0.4778 -0.5979 -0.6436
vn -0.0143 -0.6657 -0.7461
vn 0.1634 -0.6664 -0.7275
vn 0.5350 -0.6151 -0.5792
vn 0.7339 -0.6617 -0.1537
vn 0.7333 -0.6625 0.1527
vn 0.5325 -0.6149 0.5817
vn 0.1501 -0.6529 0.7424
vn -0.0202 -0.6374 0.7703
vn -0.1705 0.9573 0.2334
vn -0.0072 0.9593 0.2823
vn 0.0684 0.9606 0.2694
vn 0.1974 0.9589 0.2037
vn 0.2496 0.9673 0.0447
vn 0.2498 0.9673 -0.0449
vn 0.1980 0.9588 -0.2037
vn 0.0697 0.9609 -0.2681
vn -0.0067 0.9600 -0.2801
vn -0.1715 0.9574 -0.2322
vn -0.2531 0.9662 -0.0497
vn -0.2511 0.9667 0.0491
vn 0.1071 0.0019 0.9943
vn -0.3709 0.0156 0.9286
vn 0.9799 0.0116 -0.1989
vn 0.9976 0.0310 0.0612
vn 0.1396 0.0054 -0.9902
vn -0.0173 0.0785 -0.9968
vn 0.2651 0.0806 -0.9608
vn 0.4058 0.0157 -0.9138
vn -0.9980 0.0222 -0.0583
vn -0.9341 0.0279 -0.3560
vn 0.9776 0.1236 -0.1701
vn 0.9787 0.1252 0.1630
vn -0.9800 0.1088 0.1667
vn -0.9766 0.0972 -0.1917
vn 0.2419 0.0648 0.9681
vn -0.0506 0.0528 0.9973
vn 0.7526 0.0069 0.6584
vn -0.8614 0.0292 0.5071
vn 0.7068 0.0217 -0.7071
vn -0.5430 0.0160 -0.8396
vn -0.6290 0.0920 -0.7720
vn 0.7251 0.1041 -0.6807
vn 0.7276 0.1021 0.6784
vn -0.6425 0.0859 0.7615
vn -0.7965 0.5863 0.1476
vn -0.5263 0.5513 0.6473
vn -0.0284 0.5420 0.8399
vn 0.2076 0.5499 0.8090
vn 0.5989 0.5617 0.5708
vn 0.7943 0.5920 0.1367
vn 0.7945 0.5911 -0.1392
vn 0.5992 0.5611 -0.5710
vn 0.2164 0.5557 -0.8027
vn -0.0189 0.5516 -0.8339
vn -0.5249 0.5532 -0.6469
vn -0.8002 0.5795 -0.1544
# 60 vertex normals

vt 1.0000 0.0000 0.0000
vt 1.0000 0.2063 0.0000
vt 1.0000 0.7961 0.0000
vt 1.0000 1.0000 0.0000
vt 0.6006 1.0000 0.0000
vt 0.3992 1.0000 0.0000
vt 0.0000 1.0000 0.0000
vt 0.0000 0.7624 0.0000
vt 0.0000 0.2374 0.0000
vt 0.0000 0.0000 0.0000
vt 0.3997 0.0000 0.0000
vt 0.5999 0.0000 0.0000
vt 0.0013 -0.0007 0.0000
vt 0.0105 0.0000 0.0000
vt 0.1535 0.1970 0.0000
vt 0.3373 0.3939 0.0000
vt 0.6686 0.4712 0.0000
vt 1.0000 0.9326 0.0000
vt 0.9996 1.0002 0.0000
vt 0.8856 1.0000 0.0000
vt 0.7154 0.8443 0.0000
vt 0.6101 0.6885 0.0000
vt 0.3050 0.6056 0.0000
vt 0.0000 0.0040 0.0000
vt 0.6003 0.0000 0.0000
vt 0.5950 0.5000 0.0000
vt 0.4034 0.5000 0.0000
vt 0.4001 0.0000 0.0000
vt 0.2374 0.0000 0.0000
vt 0.7624 0.0000 0.0000
vt 0.6622 0.5000 0.0000
vt 0.3410 0.5000 0.0000
vt 0.5126 0.5000 0.0000
vt 0.5922 0.9533 0.0000
vt 0.4054 0.9579 0.0000
vt 0.4729 0.5000 0.0000
vt 0.2039 0.0000 0.0000
vt 0.7937 0.0000 0.0000
vt 0.7014 0.5000 0.0000
vt 0.3665 0.5000 0.0000
vt 0.7541 0.9588 0.0000
vt 0.2482 0.9493 0.0000
vt 0.7888 0.9661 0.0000
vt 0.2196 0.9522 0.0000
vt 0.6002 0.9536 0.0000
vt 0.3996 0.9637 0.0000
vt 0.3992 0.0000 0.0000
vt 0.6006 0.0000 0.0000
vt 1.0000 0.5000 0.0000
vt 0.0000 0.5000 0.0000
vt 1.0000 0.9527 0.0000
vt 0.0000 0.9586 0.0000
vt 1.0000 0.9586 0.0000
vt 0.0000 0.9505 0.0000
vt 1.0000 0.9655 0.0000
vt 0.0000 0.9527 0.0000
vt 1.0000 0.9505 0.0000
vt 0.0000 0.9655 0.0000
vt 0.0000 0.2048 0.0000
vt 0.3993 0.0000 0.0000
vt 0.6007 0.0000 0.0000
vt 1.0000 0.2377 0.0000
vt 1.0000 0.7624 0.0000
vt 0.6009 1.0000 0.0000
vt 0.3995 1.0000 0.0000
vt 0.0000 0.7959 0.0000
vt 0.6005 1.0000 0.0000
vt 0.3991 1.0000 0.0000
vt 0.7624 1.0000 0.0000
vt 0.2377 1.0000 0.0000
vt 0.7952 1.0000 0.0000
vt 0.2041 1.0000 0.0000
vt 0.6007 1.0000 0.0000
vt 0.3993 1.0000 0.0000
# 74 texture coords

o Box001
g Box001
f 1/1/1 2/2/2 3/3/3 
f 3/3/3 4/4/4 5/5/5 
f 5/5/5 6/6/6 7/7/7 
f 3/3/3 5/5/5 7/7/7 
f 7/7/7 8/8/8 9/9/9 
f 3/3/3 7/7/7 9/9/9 
f 9/9/9 10/10/10 11/11/11 
f 3/3/3 9/9/9 11/11/11 
f 1/1/1 3/3/3 11/11/11 
f 12/12/12 1/1/1 11/11/11 
f 13/13/13 14/14/14 15/15/15 
f 15/15/15 16/16/16 17/17/17 
f 17/17/17 18/18/18 19/19/19 
f 15/15/15 17/17/17 19/19/19 
f 19/19/19 20/20/20 21/21/21 
f 21/21/21 22/22/22 23/23/23 
f 19/19/19 21/21/21 23/23/23 
f 15/15/15 19/19/19 23/23/23 
f 13/13/13 15/15/15 23/23/23 
f 24/24/24 13/13/13 23/23/23 
f 11/25/11 25/26/25 26/27/26 
f 26/27/26 12/28/12 11/25/11 
f 9/29/9 8/30/8 27/31/27 
f 27/31/27 28/32/28 9/29/9 
f 29/33/29 30/34/30 31/35/31 
f 31/35/31 32/36/32 29/33/29 
f 3/37/3 2/38/2 33/39/33 
f 33/39/33 34/40/34 3/37/3 
f 35/41/35 36/42/36 28/32/28 
f 28/32/28 27/31/27 35/41/35 
f 37/43/37 38/44/38 34/40/34 
f 34/40/34 33/39/33 37/43/37 
f 25/26/25 39/45/39 40/46/40 
f 40/46/40 26/27/26 25/26/25 
f 32/36/32 6/47/6 5/48/5 
f 5/48/5 29/33/29 32/36/32 
f 25/26/25 11/25/11 10/1/10 
f 10/1/10 41/49/41 25/26/25 
f 12/28/12 26/27/26 42/50/42 
f 42/50/42 1/10/1 12/28/12 
f 27/31/27 8/30/8 7/1/7 
f 7/1/7 43/49/43 27/31/27 
f 9/29/9 28/32/28 41/50/41 
f 41/50/41 10/10/10 9/29/9 
f 30/34/30 29/33/29 44/49/44 
f 44/49/44 45/51/45 30/34/30 
f 32/36/32 31/35/31 46/52/46 
f 46/52/46 43/50/43 32/36/32 
f 33/39/33 2/38/2 1/1/1 
f 1/1/1 42/49/42 33/39/33 
f 3/37/3 34/40/34 44/50/44 
f 44/50/44 4/10/4 3/37/3 
f 35/41/35 27/31/27 43/49/43 
f 43/49/43 46/53/46 35/41/35 
f 28/32/28 36/42/36 47/54/47 
f 47/54/47 41/50/41 28/32/28 
f 37/43/37 33/39/33 42/49/42 
f 42/49/42 48/55/48 37/43/37 
f 38/44/38 45/56/45 44/50/44 
f 44/50/44 34/40/34 38/44/38 
f 39/45/39 25/26/25 41/49/41 
f 41/49/41 47/57/47 39/45/39 
f 26/27/26 40/46/40 48/58/48 
f 48/58/48 42/50/42 26/27/26 
f 6/47/6 32/36/32 43/50/43 
f 43/50/43 7/10/7 6/47/6 
f 29/33/29 5/48/5 4/1/4 
f 4/1/4 44/49/44 29/33/29 
f 13/13/13 24/24/24 49/59/49 
f 49/59/49 50/10/50 13/13/13 
f 14/14/14 13/13/13 50/10/50 
f 50/10/50 51/60/51 14/14/14 
f 15/15/15 14/14/14 51/60/51 
f 51/60/51 52/61/52 15/15/15 
f 16/16/16 15/15/15 52/61/52 
f 52/61/52 53/1/53 16/16/16 
f 17/17/17 16/16/16 53/1/53 
f 53/1/53 54/62/54 17/17/17 
f 18/18/18 17/17/17 54/62/54 
f 54/62/54 55/63/55 18/18/18 
f 19/19/19 18/18/18 55/63/55 
f 55/63/55 56/4/56 19/19/19 
f 20/20/20 19/19/19 56/4/56 
f 56/4/56 57/64/57 20/20/20 
f 21/21/21 20/20/20 57/64/57 
f 57/64/57 58/65/58 21/21/21 
f 22/22/22 21/21/21 58/65/58 
f 58/65/58 59/7/59 22/22/22 
f 23/23/23 22/22/22 59/7/59 
f 59/7/59 60/66/60 23/23/23 
f 24/24/24 23/23/23 60/66/60 
f 60/66/60 49/59/49 24/24/24 
f 31/35/31 30/34/30 58/67/58 
f 58/67/58 57/68/57 31/35/31 
f 36/42/36 35/41/35 55/69/55 
f 55/69/55 54/70/54 36/42/36 
f 38/44/38 37/43/37 49/71/49 
f 49/71/49 60/72/60 38/44/38 
f 40/46/40 39/45/39 52/73/52 
f 52/73/52 51/74/51 40/46/40 
f 30/34/30 45/51/45 59/4/59 
f 59/4/59 58/67/58 30/34/30 
f 46/52/46 31/35/31 57/68/57 
f 57/68/57 56/7/56 46/52/46 
f 35/41/35 46/53/46 56/4/56 
f 56/4/56 55/69/55 35/41/35 
f 47/54/47 36/42/36 54/70/54 
f 54/70/54 53/7/53 47/54/47 
f 37/43/37 48/55/48 50/4/50 
f 50/4/50 49/71/49 37/43/37 
f 45/56/45 38/44/38 60/72/60 
f 60/72/60 59/7/59 45/56/45 
f 39/45/39 47/57/47 53/4/53 
f 53/4/53 52/73/52 39/45/39 
f 48/58/48 40/46/40 51/74/51 
f 51/74/51 50/7/50 48/58/48 
# 0 polygons - 116 triangles

