# 3ds Max Wavefront OBJ Exporter v0.99 - (c)2007 guruware
# File Created: 13.12.2024 19:18:12

#
# object Box001
#

v  -0.5874 0.0000 0.4072
v  -0.5874 -0.0000 -0.4072
v  -0.4274 -0.0000 -0.5199
v  0.4274 -0.0000 -0.5199
v  0.5874 -0.0000 -0.4072
v  0.5874 0.0000 0.3155
v  0.2974 0.0000 0.5199
v  -0.4274 0.0000 0.5199
v  -0.1994 2.0477 0.3181
v  0.0694 2.0477 0.3181
v  0.3594 2.0477 0.1137
v  0.3594 2.0477 -0.2053
v  0.1994 2.0477 -0.3181
v  -0.1994 2.0477 -0.3181
v  -0.3594 2.0477 -0.2053
v  -0.3594 2.0477 0.2053
v  0.1834 1.0238 0.4190
v  -0.3134 1.0238 0.4190
v  0.4734 1.0238 -0.3062
v  0.4734 1.0238 0.2146
v  -0.3134 1.0238 -0.4190
v  0.3134 1.0238 -0.4190
v  -0.4734 1.0238 0.3062
v  -0.4734 1.0238 -0.3062
# 24 vertices

vn -0.7524 -0.5705 0.3292
vn -0.7524 -0.5705 -0.3292
vn -0.3242 -0.5652 -0.7586
vn 0.3242 -0.5652 -0.7586
vn 0.7524 -0.5705 -0.3292
vn 0.7524 -0.5705 0.3292
vn 0.3242 -0.5652 0.7586
vn -0.3242 -0.5652 0.7586
vn -0.2676 0.6927 0.6697
vn 0.2676 0.6927 0.6697
vn 0.6775 0.6868 0.2633
vn 0.6775 0.6868 -0.2633
vn 0.2676 0.6927 -0.6697
vn -0.2676 0.6927 -0.6697
vn -0.6775 0.6868 -0.2633
vn -0.6775 0.6868 0.2633
vn 0.3761 0.1693 0.9110
vn -0.3761 0.1693 0.9110
vn 0.9135 0.1544 -0.3763
vn 0.9135 0.1544 0.3763
vn -0.3761 0.1693 -0.9110
vn 0.3761 0.1693 -0.9110
vn -0.9135 0.1544 0.3763
vn -0.9135 0.1544 -0.3763
# 24 vertex normals

vt 1.0000 0.1084 0.0000
vt 1.0000 0.8916 0.0000
vt 0.8638 1.0000 0.0000
vt 0.1362 1.0000 0.0000
vt 0.0000 0.8916 0.0000
vt 0.0000 0.1966 0.0000
vt 0.2468 0.0000 0.0000
vt 0.8638 0.0000 0.0000
vt 0.2226 0.0000 0.0000
vt 0.5966 0.0000 0.0000
vt 1.0000 0.3213 0.0000
vt 1.0000 0.8228 0.0000
vt 0.7774 1.0000 0.0000
vt 0.2226 1.0000 0.0000
vt 0.0000 0.8228 0.0000
vt 0.0000 0.1772 0.0000
vt 0.7532 0.0000 0.0000
vt 0.6937 0.5000 0.0000
vt 0.1690 0.5000 0.0000
vt 0.1362 0.0000 0.0000
vt 0.8916 0.0000 0.0000
vt 0.8654 0.5000 0.0000
vt 0.2439 0.5000 0.0000
vt 0.1966 0.0000 0.0000
vt 0.8310 0.5000 0.0000
vt 0.1346 0.5000 0.0000
vt 0.1084 0.0000 0.0000
vt 0.5966 1.0000 0.0000
vt 0.8228 1.0000 0.0000
vt 0.3213 1.0000 0.0000
vt 0.1772 1.0000 0.0000
vt 0.0265 0.0394 0.0000
vt 0.0860 0.5394 0.0000
vt 0.1831 1.0394 0.0000
vt 0.0283 0.0189 0.0000
vt 0.0680 0.5195 0.0000
vt 0.0146 0.0217 0.0000
vt 0.0474 0.5217 0.0000
vt 0.0679 0.5194 0.0000
vt 0.1444 1.0206 0.0000
vt 0.1010 1.0217 0.0000
vt 0.8468 1.0139 0.0000
vt 0.9321 0.5130 0.0000
vt 0.9313 0.5177 0.0000
vt 0.9757 0.0171 0.0000
# 45 texture coords

o Box001
g Box001
f 1/1/1 2/2/2 3/3/3 
f 3/3/3 4/4/4 5/5/5 
f 1/1/1 3/3/3 5/5/5 
f 5/5/5 6/6/6 7/7/7 
f 1/1/1 5/5/5 7/7/7 
f 1/1/1 7/7/7 8/8/8 
f 9/9/9 10/10/10 11/11/11 
f 11/11/11 12/12/12 13/13/13 
f 9/9/9 11/11/11 13/13/13 
f 13/13/13 14/14/14 15/15/15 
f 9/9/9 13/13/13 15/15/15 
f 9/9/9 15/15/15 16/16/16 
f 7/17/7 17/18/17 18/19/18 
f 18/19/18 8/20/8 7/17/7 
f 5/21/5 19/22/19 20/23/20 
f 20/23/20 6/24/6 5/21/5 
f 3/8/3 21/25/21 22/19/22 
f 22/19/22 4/20/4 3/8/3 
f 1/21/1 23/22/23 24/26/24 
f 24/26/24 2/27/2 1/21/1 
f 10/28/10 9/14/9 18/19/18 
f 18/19/18 17/18/17 10/28/10 
f 12/29/12 11/30/11 20/23/20 
f 20/23/20 19/22/19 12/29/12 
f 14/13/14 13/14/13 22/19/22 
f 22/19/22 21/25/21 14/13/14 
f 16/29/16 15/31/15 24/26/24 
f 24/26/24 23/22/23 16/29/16 
f 7/32/7 6/24/6 20/23/20 
f 20/23/20 17/33/17 7/32/7 
f 17/33/17 20/23/20 11/30/11 
f 11/30/11 10/34/10 17/33/17 
f 5/35/5 4/20/4 22/19/22 
f 22/19/22 19/36/19 5/35/5 
f 3/37/3 2/27/2 24/26/24 
f 24/26/24 21/38/21 3/37/3 
f 19/39/19 22/19/22 13/14/13 
f 13/14/13 12/40/12 19/39/19 
f 21/38/21 24/26/24 15/31/15 
f 15/31/15 14/41/14 21/38/21 
f 9/42/9 16/29/16 23/22/23 
f 23/22/23 18/43/18 9/42/9 
f 18/44/18 23/22/23 1/21/1 
f 1/21/1 8/45/8 18/44/18 
# 0 polygons - 44 triangles

